solid OpenSCAD_Model
  facet normal -1 0 0
    outer loop
      vertex 10 10 0.799999
      vertex 10 15 5.8
      vertex 10 15 0.799999
    endloop
  endfacet
  facet normal -1 -0 0
    outer loop
      vertex 10 15 5.8
      vertex 10 10 0.799999
      vertex 10 10 5.8
    endloop
  endfacet
  facet normal 0 0 1
    outer loop
      vertex 20 15 5.8
      vertex 19.5 14.5 5.8
      vertex 20 10 5.8
    endloop
  endfacet
  facet normal 0 0 1
    outer loop
      vertex 20 15 5.8
      vertex 10.5 14.5 5.8
      vertex 19.5 14.5 5.8
    endloop
  endfacet
  facet normal 0 0 1
    outer loop
      vertex 10.5 14.5 5.8
      vertex 10 15 5.8
      vertex 10.5 10.5 5.8
    endloop
  endfacet
  facet normal -0 0 1
    outer loop
      vertex 10 15 5.8
      vertex 10.5 14.5 5.8
      vertex 20 15 5.8
    endloop
  endfacet
  facet normal -0 0 1
    outer loop
      vertex 19.5 10.5 5.8
      vertex 20 10 5.8
      vertex 19.5 14.5 5.8
    endloop
  endfacet
  facet normal -0 0 1
    outer loop
      vertex 10.5 10.5 5.8
      vertex 20 10 5.8
      vertex 19.5 10.5 5.8
    endloop
  endfacet
  facet normal 0 0 1
    outer loop
      vertex 10.5 10.5 5.8
      vertex 10 10 5.8
      vertex 20 10 5.8
    endloop
  endfacet
  facet normal 0 0 1
    outer loop
      vertex 10 10 5.8
      vertex 10.5 10.5 5.8
      vertex 10 15 5.8
    endloop
  endfacet
  facet normal 1 -0 0
    outer loop
      vertex 20 10 5.8
      vertex 20 15 0.799999
      vertex 20 15 5.8
    endloop
  endfacet
  facet normal 1 0 0
    outer loop
      vertex 20 15 0.799999
      vertex 20 10 5.8
      vertex 20 10 0.799999
    endloop
  endfacet
  facet normal 0 1 -0
    outer loop
      vertex 20 15 0.799999
      vertex 10 15 5.8
      vertex 20 15 5.8
    endloop
  endfacet
  facet normal 0 1 0
    outer loop
      vertex 10 15 5.8
      vertex 20 15 0.799999
      vertex 10 15 0.799999
    endloop
  endfacet
  facet normal 0 0 -1
    outer loop
      vertex 10.5 14.5 0
      vertex 19.5 19.5 0
      vertex 19.5 14.5 0
    endloop
  endfacet
  facet normal -0 0 -1
    outer loop
      vertex 19.5 19.5 0
      vertex 10.5 14.5 0
      vertex 10.5 19.5 0
    endloop
  endfacet
  facet normal 0 0 -1
    outer loop
      vertex 22.5 14.5 0
      vertex 31.5 19.5 0
      vertex 31.5 14.5 0
    endloop
  endfacet
  facet normal -0 0 -1
    outer loop
      vertex 31.5 19.5 0
      vertex 22.5 14.5 0
      vertex 22.5 19.5 0
    endloop
  endfacet
  facet normal 0 0 -1
    outer loop
      vertex 34.5 14.5 0
      vertex 43.5 19.5 0
      vertex 43.5 14.5 0
    endloop
  endfacet
  facet normal -0 0 -1
    outer loop
      vertex 43.5 19.5 0
      vertex 34.5 14.5 0
      vertex 34.5 19.5 0
    endloop
  endfacet
  facet normal 0 0 -1
    outer loop
      vertex 46.5 14.5 0
      vertex 55.5 19.5 0
      vertex 55.5 14.5 0
    endloop
  endfacet
  facet normal -0 0 -1
    outer loop
      vertex 55.5 19.5 0
      vertex 46.5 14.5 0
      vertex 46.5 19.5 0
    endloop
  endfacet
  facet normal 0 0 -1
    outer loop
      vertex 58.5 14.5 0
      vertex 67.5 19.5 0
      vertex 67.5 14.5 0
    endloop
  endfacet
  facet normal -0 0 -1
    outer loop
      vertex 67.5 19.5 0
      vertex 58.5 14.5 0
      vertex 58.5 19.5 0
    endloop
  endfacet
  facet normal 0 0 -1
    outer loop
      vertex 70.5 14.5 0
      vertex 79.5 19.5 0
      vertex 79.5 14.5 0
    endloop
  endfacet
  facet normal -0 0 -1
    outer loop
      vertex 79.5 19.5 0
      vertex 70.5 14.5 0
      vertex 70.5 19.5 0
    endloop
  endfacet
  facet normal 0 0 -1
    outer loop
      vertex 82.5 14.5 0
      vertex 91.5 19.5 0
      vertex 91.5 14.5 0
    endloop
  endfacet
  facet normal -0 0 -1
    outer loop
      vertex 91.5 19.5 0
      vertex 82.5 14.5 0
      vertex 82.5 19.5 0
    endloop
  endfacet
  facet normal 0 0 -1
    outer loop
      vertex 94.5 14.5 0
      vertex 103.5 19.5 0
      vertex 103.5 14.5 0
    endloop
  endfacet
  facet normal -0 0 -1
    outer loop
      vertex 103.5 19.5 0
      vertex 94.5 14.5 0
      vertex 94.5 19.5 0
    endloop
  endfacet
  facet normal 0 0 -1
    outer loop
      vertex 103.5 14.5 0
      vertex 140 0 0
      vertex 103.5 10.5 0
    endloop
  endfacet
  facet normal 0 0 -1
    outer loop
      vertex 140 0 0
      vertex 94.5 10.5 0
      vertex 103.5 10.5 0
    endloop
  endfacet
  facet normal 0 0 -1
    outer loop
      vertex 91.5 14.5 0
      vertex 94.5 14.5 0
      vertex 94.5 10.5 0
    endloop
  endfacet
  facet normal 0 0 -1
    outer loop
      vertex 94.5 14.5 0
      vertex 91.5 14.5 0
      vertex 94.5 19.5 0
    endloop
  endfacet
  facet normal 0 0 -1
    outer loop
      vertex 91.5 14.5 0
      vertex 94.5 10.5 0
      vertex 91.5 10.5 0
    endloop
  endfacet
  facet normal 0 0 -1
    outer loop
      vertex 140 0 0
      vertex 91.5 10.5 0
      vertex 94.5 10.5 0
    endloop
  endfacet
  facet normal 0 0 -1
    outer loop
      vertex 140 0 0
      vertex 82.5 10.5 0
      vertex 91.5 10.5 0
    endloop
  endfacet
  facet normal 0 0 -1
    outer loop
      vertex 79.5 14.5 0
      vertex 82.5 14.5 0
      vertex 82.5 10.5 0
    endloop
  endfacet
  facet normal 0 0 -1
    outer loop
      vertex 82.5 14.5 0
      vertex 79.5 14.5 0
      vertex 82.5 19.5 0
    endloop
  endfacet
  facet normal 0 0 -1
    outer loop
      vertex 79.5 14.5 0
      vertex 82.5 10.5 0
      vertex 79.5 10.5 0
    endloop
  endfacet
  facet normal 0 0 -1
    outer loop
      vertex 140 0 0
      vertex 79.5 10.5 0
      vertex 82.5 10.5 0
    endloop
  endfacet
  facet normal 0 0 -1
    outer loop
      vertex 140 0 0
      vertex 70.5 10.5 0
      vertex 79.5 10.5 0
    endloop
  endfacet
  facet normal 0 0 -1
    outer loop
      vertex 67.5 14.5 0
      vertex 70.5 14.5 0
      vertex 70.5 10.5 0
    endloop
  endfacet
  facet normal 0 0 -1
    outer loop
      vertex 70.5 14.5 0
      vertex 67.5 14.5 0
      vertex 70.5 19.5 0
    endloop
  endfacet
  facet normal 0 0 -1
    outer loop
      vertex 67.5 14.5 0
      vertex 70.5 10.5 0
      vertex 67.5 10.5 0
    endloop
  endfacet
  facet normal 0 0 -1
    outer loop
      vertex 140 0 0
      vertex 67.5 10.5 0
      vertex 70.5 10.5 0
    endloop
  endfacet
  facet normal 0 0 -1
    outer loop
      vertex 0 0 0
      vertex 67.5 10.5 0
      vertex 140 0 0
    endloop
  endfacet
  facet normal 0 0 -1
    outer loop
      vertex 55.5 14.5 0
      vertex 58.5 14.5 0
      vertex 58.5 10.5 0
    endloop
  endfacet
  facet normal 0 0 -1
    outer loop
      vertex 58.5 14.5 0
      vertex 55.5 14.5 0
      vertex 58.5 19.5 0
    endloop
  endfacet
  facet normal 0 0 -1
    outer loop
      vertex 55.5 14.5 0
      vertex 58.5 10.5 0
      vertex 55.5 10.5 0
    endloop
  endfacet
  facet normal -0 0 -1
    outer loop
      vertex 67.5 10.5 0
      vertex 0 0 0
      vertex 58.5 10.5 0
    endloop
  endfacet
  facet normal -0 0 -1
    outer loop
      vertex 58.5 10.5 0
      vertex 0 0 0
      vertex 55.5 10.5 0
    endloop
  endfacet
  facet normal 0 0 -1
    outer loop
      vertex 43.5 14.5 0
      vertex 46.5 14.5 0
      vertex 46.5 10.5 0
    endloop
  endfacet
  facet normal 0 0 -1
    outer loop
      vertex 46.5 14.5 0
      vertex 43.5 14.5 0
      vertex 46.5 19.5 0
    endloop
  endfacet
  facet normal 0 0 -1
    outer loop
      vertex 43.5 14.5 0
      vertex 46.5 10.5 0
      vertex 43.5 10.5 0
    endloop
  endfacet
  facet normal -0 0 -1
    outer loop
      vertex 55.5 10.5 0
      vertex 0 0 0
      vertex 46.5 10.5 0
    endloop
  endfacet
  facet normal -0 0 -1
    outer loop
      vertex 46.5 10.5 0
      vertex 0 0 0
      vertex 43.5 10.5 0
    endloop
  endfacet
  facet normal 0 0 -1
    outer loop
      vertex 31.5 14.5 0
      vertex 34.5 14.5 0
      vertex 34.5 10.5 0
    endloop
  endfacet
  facet normal 0 0 -1
    outer loop
      vertex 34.5 14.5 0
      vertex 31.5 14.5 0
      vertex 34.5 19.5 0
    endloop
  endfacet
  facet normal 0 0 -1
    outer loop
      vertex 31.5 14.5 0
      vertex 34.5 10.5 0
      vertex 31.5 10.5 0
    endloop
  endfacet
  facet normal -0 0 -1
    outer loop
      vertex 43.5 10.5 0
      vertex 0 0 0
      vertex 34.5 10.5 0
    endloop
  endfacet
  facet normal -0 0 -1
    outer loop
      vertex 34.5 10.5 0
      vertex 0 0 0
      vertex 31.5 10.5 0
    endloop
  endfacet
  facet normal 0 0 -1
    outer loop
      vertex 19.5 14.5 0
      vertex 22.5 14.5 0
      vertex 22.5 10.5 0
    endloop
  endfacet
  facet normal 0 0 -1
    outer loop
      vertex 22.5 14.5 0
      vertex 19.5 14.5 0
      vertex 22.5 19.5 0
    endloop
  endfacet
  facet normal 0 0 -1
    outer loop
      vertex 19.5 14.5 0
      vertex 22.5 10.5 0
      vertex 19.5 10.5 0
    endloop
  endfacet
  facet normal -0 0 -1
    outer loop
      vertex 31.5 10.5 0
      vertex 0 0 0
      vertex 22.5 10.5 0
    endloop
  endfacet
  facet normal -0 0 -1
    outer loop
      vertex 22.5 10.5 0
      vertex 0 0 0
      vertex 19.5 10.5 0
    endloop
  endfacet
  facet normal 0 0 -1
    outer loop
      vertex 0 0 0
      vertex 10.5 14.5 0
      vertex 10.5 10.5 0
    endloop
  endfacet
  facet normal 0 0 -1
    outer loop
      vertex 10.5 14.5 0
      vertex 0 30 0
      vertex 10.5 19.5 0
    endloop
  endfacet
  facet normal -0 0 -1
    outer loop
      vertex 10.5 14.5 0
      vertex 0 0 0
      vertex 0 30 0
    endloop
  endfacet
  facet normal -0 0 -1
    outer loop
      vertex 19.5 10.5 0
      vertex 0 0 0
      vertex 10.5 10.5 0
    endloop
  endfacet
  facet normal 0 0 -1
    outer loop
      vertex 140 0 0
      vertex 103.5 14.5 0
      vertex 140 30 0
    endloop
  endfacet
  facet normal 0 0 -1
    outer loop
      vertex 103.5 19.5 0
      vertex 140 30 0
      vertex 103.5 14.5 0
    endloop
  endfacet
  facet normal 0 0 -1
    outer loop
      vertex 103.5 23.5 0
      vertex 140 30 0
      vertex 103.5 19.5 0
    endloop
  endfacet
  facet normal 0 0 -1
    outer loop
      vertex 94.5 23.5 0
      vertex 140 30 0
      vertex 103.5 23.5 0
    endloop
  endfacet
  facet normal 0 0 -1
    outer loop
      vertex 91.5 19.5 0
      vertex 94.5 19.5 0
      vertex 91.5 14.5 0
    endloop
  endfacet
  facet normal 0 0 -1
    outer loop
      vertex 94.5 19.5 0
      vertex 91.5 19.5 0
      vertex 94.5 23.5 0
    endloop
  endfacet
  facet normal 0 0 -1
    outer loop
      vertex 91.5 23.5 0
      vertex 94.5 23.5 0
      vertex 91.5 19.5 0
    endloop
  endfacet
  facet normal 0 0 -1
    outer loop
      vertex 91.5 23.5 0
      vertex 140 30 0
      vertex 94.5 23.5 0
    endloop
  endfacet
  facet normal 0 0 -1
    outer loop
      vertex 82.5 23.5 0
      vertex 140 30 0
      vertex 91.5 23.5 0
    endloop
  endfacet
  facet normal 0 0 -1
    outer loop
      vertex 79.5 19.5 0
      vertex 82.5 19.5 0
      vertex 79.5 14.5 0
    endloop
  endfacet
  facet normal 0 0 -1
    outer loop
      vertex 82.5 19.5 0
      vertex 79.5 19.5 0
      vertex 82.5 23.5 0
    endloop
  endfacet
  facet normal 0 0 -1
    outer loop
      vertex 79.5 23.5 0
      vertex 82.5 23.5 0
      vertex 79.5 19.5 0
    endloop
  endfacet
  facet normal 0 0 -1
    outer loop
      vertex 79.5 23.5 0
      vertex 140 30 0
      vertex 82.5 23.5 0
    endloop
  endfacet
  facet normal 0 0 -1
    outer loop
      vertex 70.5 23.5 0
      vertex 140 30 0
      vertex 79.5 23.5 0
    endloop
  endfacet
  facet normal 0 0 -1
    outer loop
      vertex 67.5 19.5 0
      vertex 70.5 19.5 0
      vertex 67.5 14.5 0
    endloop
  endfacet
  facet normal 0 0 -1
    outer loop
      vertex 70.5 19.5 0
      vertex 67.5 19.5 0
      vertex 70.5 23.5 0
    endloop
  endfacet
  facet normal 0 0 -1
    outer loop
      vertex 67.5 23.5 0
      vertex 70.5 23.5 0
      vertex 67.5 19.5 0
    endloop
  endfacet
  facet normal 0 0 -1
    outer loop
      vertex 67.5 23.5 0
      vertex 140 30 0
      vertex 70.5 23.5 0
    endloop
  endfacet
  facet normal 0 0 -1
    outer loop
      vertex 0 30 0
      vertex 67.5 23.5 0
      vertex 58.5 23.5 0
    endloop
  endfacet
  facet normal 0 0 -1
    outer loop
      vertex 55.5 19.5 0
      vertex 58.5 19.5 0
      vertex 55.5 14.5 0
    endloop
  endfacet
  facet normal 0 0 -1
    outer loop
      vertex 58.5 19.5 0
      vertex 55.5 19.5 0
      vertex 58.5 23.5 0
    endloop
  endfacet
  facet normal 0 0 -1
    outer loop
      vertex 55.5 23.5 0
      vertex 58.5 23.5 0
      vertex 55.5 19.5 0
    endloop
  endfacet
  facet normal 0 0 -1
    outer loop
      vertex 0 30 0
      vertex 58.5 23.5 0
      vertex 55.5 23.5 0
    endloop
  endfacet
  facet normal 0 0 -1
    outer loop
      vertex 0 30 0
      vertex 55.5 23.5 0
      vertex 46.5 23.5 0
    endloop
  endfacet
  facet normal 0 0 -1
    outer loop
      vertex 43.5 19.5 0
      vertex 46.5 19.5 0
      vertex 43.5 14.5 0
    endloop
  endfacet
  facet normal 0 0 -1
    outer loop
      vertex 46.5 19.5 0
      vertex 43.5 19.5 0
      vertex 46.5 23.5 0
    endloop
  endfacet
  facet normal 0 0 -1
    outer loop
      vertex 43.5 23.5 0
      vertex 46.5 23.5 0
      vertex 43.5 19.5 0
    endloop
  endfacet
  facet normal 0 0 -1
    outer loop
      vertex 0 30 0
      vertex 46.5 23.5 0
      vertex 43.5 23.5 0
    endloop
  endfacet
  facet normal 0 0 -1
    outer loop
      vertex 0 30 0
      vertex 43.5 23.5 0
      vertex 34.5 23.5 0
    endloop
  endfacet
  facet normal 0 0 -1
    outer loop
      vertex 31.5 19.5 0
      vertex 34.5 19.5 0
      vertex 31.5 14.5 0
    endloop
  endfacet
  facet normal 0 0 -1
    outer loop
      vertex 34.5 19.5 0
      vertex 31.5 19.5 0
      vertex 34.5 23.5 0
    endloop
  endfacet
  facet normal 0 0 -1
    outer loop
      vertex 31.5 23.5 0
      vertex 34.5 23.5 0
      vertex 31.5 19.5 0
    endloop
  endfacet
  facet normal 0 0 -1
    outer loop
      vertex 0 30 0
      vertex 34.5 23.5 0
      vertex 31.5 23.5 0
    endloop
  endfacet
  facet normal 0 0 -1
    outer loop
      vertex 0 30 0
      vertex 31.5 23.5 0
      vertex 22.5 23.5 0
    endloop
  endfacet
  facet normal 0 0 -1
    outer loop
      vertex 19.5 19.5 0
      vertex 22.5 19.5 0
      vertex 19.5 14.5 0
    endloop
  endfacet
  facet normal 0 0 -1
    outer loop
      vertex 22.5 19.5 0
      vertex 19.5 19.5 0
      vertex 22.5 23.5 0
    endloop
  endfacet
  facet normal 0 0 -1
    outer loop
      vertex 19.5 23.5 0
      vertex 22.5 23.5 0
      vertex 19.5 19.5 0
    endloop
  endfacet
  facet normal 0 0 -1
    outer loop
      vertex 0 30 0
      vertex 22.5 23.5 0
      vertex 19.5 23.5 0
    endloop
  endfacet
  facet normal 0 0 -1
    outer loop
      vertex 0 30 0
      vertex 19.5 23.5 0
      vertex 10.5 23.5 0
    endloop
  endfacet
  facet normal 0 0 -1
    outer loop
      vertex 67.5 23.5 0
      vertex 0 30 0
      vertex 140 30 0
    endloop
  endfacet
  facet normal 0 0 -1
    outer loop
      vertex 10.5 19.5 0
      vertex 0 30 0
      vertex 10.5 23.5 0
    endloop
  endfacet
  facet normal 0 -1 0
    outer loop
      vertex 10 10 0.799999
      vertex 20 10 5.8
      vertex 10 10 5.8
    endloop
  endfacet
  facet normal 0 -1 -0
    outer loop
      vertex 20 10 5.8
      vertex 10 10 0.799999
      vertex 20 10 0.799999
    endloop
  endfacet
  facet normal -1 0 0
    outer loop
      vertex 22 10 0.799999
      vertex 22 15 5.8
      vertex 22 15 0.799999
    endloop
  endfacet
  facet normal -1 -0 0
    outer loop
      vertex 22 15 5.8
      vertex 22 10 0.799999
      vertex 22 10 5.8
    endloop
  endfacet
  facet normal 0 0 1
    outer loop
      vertex 32 15 5.8
      vertex 31.5 14.5 5.8
      vertex 32 10 5.8
    endloop
  endfacet
  facet normal 0 0 1
    outer loop
      vertex 32 15 5.8
      vertex 22.5 14.5 5.8
      vertex 31.5 14.5 5.8
    endloop
  endfacet
  facet normal 0 0 1
    outer loop
      vertex 22.5 14.5 5.8
      vertex 22 15 5.8
      vertex 22.5 10.5 5.8
    endloop
  endfacet
  facet normal -0 0 1
    outer loop
      vertex 22 15 5.8
      vertex 22.5 14.5 5.8
      vertex 32 15 5.8
    endloop
  endfacet
  facet normal -0 0 1
    outer loop
      vertex 31.5 10.5 5.8
      vertex 32 10 5.8
      vertex 31.5 14.5 5.8
    endloop
  endfacet
  facet normal -0 0 1
    outer loop
      vertex 22.5 10.5 5.8
      vertex 32 10 5.8
      vertex 31.5 10.5 5.8
    endloop
  endfacet
  facet normal 0 0 1
    outer loop
      vertex 22.5 10.5 5.8
      vertex 22 10 5.8
      vertex 32 10 5.8
    endloop
  endfacet
  facet normal 0 0 1
    outer loop
      vertex 22 10 5.8
      vertex 22.5 10.5 5.8
      vertex 22 15 5.8
    endloop
  endfacet
  facet normal 1 -0 0
    outer loop
      vertex 32 10 5.8
      vertex 32 15 0.799999
      vertex 32 15 5.8
    endloop
  endfacet
  facet normal 1 0 0
    outer loop
      vertex 32 15 0.799999
      vertex 32 10 5.8
      vertex 32 10 0.799999
    endloop
  endfacet
  facet normal 0 1 -0
    outer loop
      vertex 32 15 0.799999
      vertex 22 15 5.8
      vertex 32 15 5.8
    endloop
  endfacet
  facet normal 0 1 0
    outer loop
      vertex 22 15 5.8
      vertex 32 15 0.799999
      vertex 22 15 0.799999
    endloop
  endfacet
  facet normal 0 -1 0
    outer loop
      vertex 22 10 0.799999
      vertex 32 10 5.8
      vertex 22 10 5.8
    endloop
  endfacet
  facet normal 0 -1 -0
    outer loop
      vertex 32 10 5.8
      vertex 22 10 0.799999
      vertex 32 10 0.799999
    endloop
  endfacet
  facet normal -1 0 0
    outer loop
      vertex 34 10 0.799999
      vertex 34 15 5.8
      vertex 34 15 0.799999
    endloop
  endfacet
  facet normal -1 -0 0
    outer loop
      vertex 34 15 5.8
      vertex 34 10 0.799999
      vertex 34 10 5.8
    endloop
  endfacet
  facet normal 0 0 1
    outer loop
      vertex 44 15 5.8
      vertex 43.5 14.5 5.8
      vertex 44 10 5.8
    endloop
  endfacet
  facet normal 0 0 1
    outer loop
      vertex 44 15 5.8
      vertex 34.5 14.5 5.8
      vertex 43.5 14.5 5.8
    endloop
  endfacet
  facet normal 0 0 1
    outer loop
      vertex 34.5 14.5 5.8
      vertex 34 15 5.8
      vertex 34.5 10.5 5.8
    endloop
  endfacet
  facet normal -0 0 1
    outer loop
      vertex 34 15 5.8
      vertex 34.5 14.5 5.8
      vertex 44 15 5.8
    endloop
  endfacet
  facet normal -0 0 1
    outer loop
      vertex 43.5 10.5 5.8
      vertex 44 10 5.8
      vertex 43.5 14.5 5.8
    endloop
  endfacet
  facet normal -0 0 1
    outer loop
      vertex 34.5 10.5 5.8
      vertex 44 10 5.8
      vertex 43.5 10.5 5.8
    endloop
  endfacet
  facet normal 0 0 1
    outer loop
      vertex 34.5 10.5 5.8
      vertex 34 10 5.8
      vertex 44 10 5.8
    endloop
  endfacet
  facet normal 0 0 1
    outer loop
      vertex 34 10 5.8
      vertex 34.5 10.5 5.8
      vertex 34 15 5.8
    endloop
  endfacet
  facet normal 1 -0 0
    outer loop
      vertex 44 10 5.8
      vertex 44 15 0.799999
      vertex 44 15 5.8
    endloop
  endfacet
  facet normal 1 0 0
    outer loop
      vertex 44 15 0.799999
      vertex 44 10 5.8
      vertex 44 10 0.799999
    endloop
  endfacet
  facet normal 0 1 -0
    outer loop
      vertex 44 15 0.799999
      vertex 34 15 5.8
      vertex 44 15 5.8
    endloop
  endfacet
  facet normal 0 1 0
    outer loop
      vertex 34 15 5.8
      vertex 44 15 0.799999
      vertex 34 15 0.799999
    endloop
  endfacet
  facet normal 0 -1 0
    outer loop
      vertex 34 10 0.799999
      vertex 44 10 5.8
      vertex 34 10 5.8
    endloop
  endfacet
  facet normal 0 -1 -0
    outer loop
      vertex 44 10 5.8
      vertex 34 10 0.799999
      vertex 44 10 0.799999
    endloop
  endfacet
  facet normal -1 0 0
    outer loop
      vertex 46 10 0.799999
      vertex 46 15 5.8
      vertex 46 15 0.799999
    endloop
  endfacet
  facet normal -1 -0 0
    outer loop
      vertex 46 15 5.8
      vertex 46 10 0.799999
      vertex 46 10 5.8
    endloop
  endfacet
  facet normal 0 0 1
    outer loop
      vertex 56 15 5.8
      vertex 55.5 14.5 5.8
      vertex 56 10 5.8
    endloop
  endfacet
  facet normal 0 0 1
    outer loop
      vertex 56 15 5.8
      vertex 46.5 14.5 5.8
      vertex 55.5 14.5 5.8
    endloop
  endfacet
  facet normal 0 0 1
    outer loop
      vertex 46.5 14.5 5.8
      vertex 46 15 5.8
      vertex 46.5 10.5 5.8
    endloop
  endfacet
  facet normal -0 0 1
    outer loop
      vertex 46 15 5.8
      vertex 46.5 14.5 5.8
      vertex 56 15 5.8
    endloop
  endfacet
  facet normal -0 0 1
    outer loop
      vertex 55.5 10.5 5.8
      vertex 56 10 5.8
      vertex 55.5 14.5 5.8
    endloop
  endfacet
  facet normal -0 0 1
    outer loop
      vertex 46.5 10.5 5.8
      vertex 56 10 5.8
      vertex 55.5 10.5 5.8
    endloop
  endfacet
  facet normal 0 0 1
    outer loop
      vertex 46.5 10.5 5.8
      vertex 46 10 5.8
      vertex 56 10 5.8
    endloop
  endfacet
  facet normal 0 0 1
    outer loop
      vertex 46 10 5.8
      vertex 46.5 10.5 5.8
      vertex 46 15 5.8
    endloop
  endfacet
  facet normal 1 -0 0
    outer loop
      vertex 56 10 5.8
      vertex 56 15 0.799999
      vertex 56 15 5.8
    endloop
  endfacet
  facet normal 1 0 0
    outer loop
      vertex 56 15 0.799999
      vertex 56 10 5.8
      vertex 56 10 0.799999
    endloop
  endfacet
  facet normal 0 -1 0
    outer loop
      vertex 46 10 0.799999
      vertex 56 10 5.8
      vertex 46 10 5.8
    endloop
  endfacet
  facet normal 0 -1 -0
    outer loop
      vertex 56 10 5.8
      vertex 46 10 0.799999
      vertex 56 10 0.799999
    endloop
  endfacet
  facet normal 0 1 -0
    outer loop
      vertex 56 15 0.799999
      vertex 46 15 5.8
      vertex 56 15 5.8
    endloop
  endfacet
  facet normal 0 1 0
    outer loop
      vertex 46 15 5.8
      vertex 56 15 0.799999
      vertex 46 15 0.799999
    endloop
  endfacet
  facet normal -1 0 0
    outer loop
      vertex 58 10 0.799999
      vertex 58 15 5.8
      vertex 58 15 0.799999
    endloop
  endfacet
  facet normal -1 -0 0
    outer loop
      vertex 58 15 5.8
      vertex 58 10 0.799999
      vertex 58 10 5.8
    endloop
  endfacet
  facet normal 0 0 1
    outer loop
      vertex 68 15 5.8
      vertex 67.5 14.5 5.8
      vertex 68 10 5.8
    endloop
  endfacet
  facet normal 0 0 1
    outer loop
      vertex 68 15 5.8
      vertex 58.5 14.5 5.8
      vertex 67.5 14.5 5.8
    endloop
  endfacet
  facet normal 0 0 1
    outer loop
      vertex 58.5 14.5 5.8
      vertex 58 15 5.8
      vertex 58.5 10.5 5.8
    endloop
  endfacet
  facet normal -0 0 1
    outer loop
      vertex 58 15 5.8
      vertex 58.5 14.5 5.8
      vertex 68 15 5.8
    endloop
  endfacet
  facet normal -0 0 1
    outer loop
      vertex 67.5 10.5 5.8
      vertex 68 10 5.8
      vertex 67.5 14.5 5.8
    endloop
  endfacet
  facet normal -0 0 1
    outer loop
      vertex 58.5 10.5 5.8
      vertex 68 10 5.8
      vertex 67.5 10.5 5.8
    endloop
  endfacet
  facet normal 0 0 1
    outer loop
      vertex 58.5 10.5 5.8
      vertex 58 10 5.8
      vertex 68 10 5.8
    endloop
  endfacet
  facet normal 0 0 1
    outer loop
      vertex 58 10 5.8
      vertex 58.5 10.5 5.8
      vertex 58 15 5.8
    endloop
  endfacet
  facet normal 1 -0 0
    outer loop
      vertex 68 10 5.8
      vertex 68 15 0.799999
      vertex 68 15 5.8
    endloop
  endfacet
  facet normal 1 0 0
    outer loop
      vertex 68 15 0.799999
      vertex 68 10 5.8
      vertex 68 10 0.799999
    endloop
  endfacet
  facet normal 0 1 -0
    outer loop
      vertex 68 15 0.799999
      vertex 58 15 5.8
      vertex 68 15 5.8
    endloop
  endfacet
  facet normal 0 1 0
    outer loop
      vertex 58 15 5.8
      vertex 68 15 0.799999
      vertex 58 15 0.799999
    endloop
  endfacet
  facet normal 0 -1 0
    outer loop
      vertex 58 10 0.799999
      vertex 68 10 5.8
      vertex 58 10 5.8
    endloop
  endfacet
  facet normal 0 -1 -0
    outer loop
      vertex 68 10 5.8
      vertex 58 10 0.799999
      vertex 68 10 0.799999
    endloop
  endfacet
  facet normal -1 0 0
    outer loop
      vertex 70 10 0.799999
      vertex 70 15 5.8
      vertex 70 15 0.799999
    endloop
  endfacet
  facet normal -1 -0 0
    outer loop
      vertex 70 15 5.8
      vertex 70 10 0.799999
      vertex 70 10 5.8
    endloop
  endfacet
  facet normal 0 0 1
    outer loop
      vertex 80 15 5.8
      vertex 79.5 14.5 5.8
      vertex 80 10 5.8
    endloop
  endfacet
  facet normal 0 0 1
    outer loop
      vertex 80 15 5.8
      vertex 70.5 14.5 5.8
      vertex 79.5 14.5 5.8
    endloop
  endfacet
  facet normal 0 0 1
    outer loop
      vertex 70.5 14.5 5.8
      vertex 70 15 5.8
      vertex 70.5 10.5 5.8
    endloop
  endfacet
  facet normal -0 0 1
    outer loop
      vertex 70 15 5.8
      vertex 70.5 14.5 5.8
      vertex 80 15 5.8
    endloop
  endfacet
  facet normal -0 0 1
    outer loop
      vertex 79.5 10.5 5.8
      vertex 80 10 5.8
      vertex 79.5 14.5 5.8
    endloop
  endfacet
  facet normal -0 0 1
    outer loop
      vertex 70.5 10.5 5.8
      vertex 80 10 5.8
      vertex 79.5 10.5 5.8
    endloop
  endfacet
  facet normal 0 0 1
    outer loop
      vertex 70.5 10.5 5.8
      vertex 70 10 5.8
      vertex 80 10 5.8
    endloop
  endfacet
  facet normal 0 0 1
    outer loop
      vertex 70 10 5.8
      vertex 70.5 10.5 5.8
      vertex 70 15 5.8
    endloop
  endfacet
  facet normal 1 -0 0
    outer loop
      vertex 80 10 5.8
      vertex 80 15 0.799999
      vertex 80 15 5.8
    endloop
  endfacet
  facet normal 1 0 0
    outer loop
      vertex 80 15 0.799999
      vertex 80 10 5.8
      vertex 80 10 0.799999
    endloop
  endfacet
  facet normal 0 1 -0
    outer loop
      vertex 80 15 0.799999
      vertex 70 15 5.8
      vertex 80 15 5.8
    endloop
  endfacet
  facet normal 0 1 0
    outer loop
      vertex 70 15 5.8
      vertex 80 15 0.799999
      vertex 70 15 0.799999
    endloop
  endfacet
  facet normal 0 -1 0
    outer loop
      vertex 70 10 0.799999
      vertex 80 10 5.8
      vertex 70 10 5.8
    endloop
  endfacet
  facet normal 0 -1 -0
    outer loop
      vertex 80 10 5.8
      vertex 70 10 0.799999
      vertex 80 10 0.799999
    endloop
  endfacet
  facet normal -1 0 0
    outer loop
      vertex 82 10 0.799999
      vertex 82 15 5.8
      vertex 82 15 0.799999
    endloop
  endfacet
  facet normal -1 -0 0
    outer loop
      vertex 82 15 5.8
      vertex 82 10 0.799999
      vertex 82 10 5.8
    endloop
  endfacet
  facet normal 0 0 1
    outer loop
      vertex 92 15 5.8
      vertex 91.5 14.5 5.8
      vertex 92 10 5.8
    endloop
  endfacet
  facet normal 0 0 1
    outer loop
      vertex 92 15 5.8
      vertex 82.5 14.5 5.8
      vertex 91.5 14.5 5.8
    endloop
  endfacet
  facet normal 0 0 1
    outer loop
      vertex 82.5 14.5 5.8
      vertex 82 15 5.8
      vertex 82.5 10.5 5.8
    endloop
  endfacet
  facet normal -0 0 1
    outer loop
      vertex 82 15 5.8
      vertex 82.5 14.5 5.8
      vertex 92 15 5.8
    endloop
  endfacet
  facet normal -0 0 1
    outer loop
      vertex 91.5 10.5 5.8
      vertex 92 10 5.8
      vertex 91.5 14.5 5.8
    endloop
  endfacet
  facet normal -0 0 1
    outer loop
      vertex 82.5 10.5 5.8
      vertex 92 10 5.8
      vertex 91.5 10.5 5.8
    endloop
  endfacet
  facet normal 0 0 1
    outer loop
      vertex 82.5 10.5 5.8
      vertex 82 10 5.8
      vertex 92 10 5.8
    endloop
  endfacet
  facet normal 0 0 1
    outer loop
      vertex 82 10 5.8
      vertex 82.5 10.5 5.8
      vertex 82 15 5.8
    endloop
  endfacet
  facet normal 1 -0 0
    outer loop
      vertex 92 10 5.8
      vertex 92 15 0.799999
      vertex 92 15 5.8
    endloop
  endfacet
  facet normal 1 0 0
    outer loop
      vertex 92 15 0.799999
      vertex 92 10 5.8
      vertex 92 10 0.799999
    endloop
  endfacet
  facet normal 0 1 -0
    outer loop
      vertex 92 15 0.799999
      vertex 82 15 5.8
      vertex 92 15 5.8
    endloop
  endfacet
  facet normal 0 1 0
    outer loop
      vertex 82 15 5.8
      vertex 92 15 0.799999
      vertex 82 15 0.799999
    endloop
  endfacet
  facet normal 0 -1 0
    outer loop
      vertex 82 10 0.799999
      vertex 92 10 5.8
      vertex 82 10 5.8
    endloop
  endfacet
  facet normal 0 -1 -0
    outer loop
      vertex 92 10 5.8
      vertex 82 10 0.799999
      vertex 92 10 0.799999
    endloop
  endfacet
  facet normal -1 0 0
    outer loop
      vertex 94 10 0.799999
      vertex 94 15 5.8
      vertex 94 15 0.799999
    endloop
  endfacet
  facet normal -1 -0 0
    outer loop
      vertex 94 15 5.8
      vertex 94 10 0.799999
      vertex 94 10 5.8
    endloop
  endfacet
  facet normal 0 0 1
    outer loop
      vertex 104 15 5.8
      vertex 103.5 14.5 5.8
      vertex 104 10 5.8
    endloop
  endfacet
  facet normal 0 0 1
    outer loop
      vertex 104 15 5.8
      vertex 94.5 14.5 5.8
      vertex 103.5 14.5 5.8
    endloop
  endfacet
  facet normal 0 0 1
    outer loop
      vertex 94.5 14.5 5.8
      vertex 94 15 5.8
      vertex 94.5 10.5 5.8
    endloop
  endfacet
  facet normal -0 0 1
    outer loop
      vertex 94 15 5.8
      vertex 94.5 14.5 5.8
      vertex 104 15 5.8
    endloop
  endfacet
  facet normal -0 0 1
    outer loop
      vertex 103.5 10.5 5.8
      vertex 104 10 5.8
      vertex 103.5 14.5 5.8
    endloop
  endfacet
  facet normal -0 0 1
    outer loop
      vertex 94.5 10.5 5.8
      vertex 104 10 5.8
      vertex 103.5 10.5 5.8
    endloop
  endfacet
  facet normal 0 0 1
    outer loop
      vertex 94.5 10.5 5.8
      vertex 94 10 5.8
      vertex 104 10 5.8
    endloop
  endfacet
  facet normal 0 0 1
    outer loop
      vertex 94 10 5.8
      vertex 94.5 10.5 5.8
      vertex 94 15 5.8
    endloop
  endfacet
  facet normal 1 -0 0
    outer loop
      vertex 104 10 5.8
      vertex 104 15 0.799999
      vertex 104 15 5.8
    endloop
  endfacet
  facet normal 1 0 0
    outer loop
      vertex 104 15 0.799999
      vertex 104 10 5.8
      vertex 104 10 0.799999
    endloop
  endfacet
  facet normal 0 1 -0
    outer loop
      vertex 104 15 0.799999
      vertex 94 15 5.8
      vertex 104 15 5.8
    endloop
  endfacet
  facet normal 0 1 0
    outer loop
      vertex 94 15 5.8
      vertex 104 15 0.799999
      vertex 94 15 0.799999
    endloop
  endfacet
  facet normal 0 -1 0
    outer loop
      vertex 94 10 0.799999
      vertex 104 10 5.8
      vertex 94 10 5.8
    endloop
  endfacet
  facet normal 0 -1 -0
    outer loop
      vertex 104 10 5.8
      vertex 94 10 0.799999
      vertex 104 10 0.799999
    endloop
  endfacet
  facet normal -1 0 0
    outer loop
      vertex 10 19 0.799999
      vertex 10 24 5.8
      vertex 10 24 0.799999
    endloop
  endfacet
  facet normal -1 -0 0
    outer loop
      vertex 10 24 5.8
      vertex 10 19 0.799999
      vertex 10 19 5.8
    endloop
  endfacet
  facet normal 0 0 1
    outer loop
      vertex 20 24 5.8
      vertex 19.5 23.5 5.8
      vertex 20 19 5.8
    endloop
  endfacet
  facet normal 0 0 1
    outer loop
      vertex 20 24 5.8
      vertex 10.5 23.5 5.8
      vertex 19.5 23.5 5.8
    endloop
  endfacet
  facet normal 0 0 1
    outer loop
      vertex 10.5 23.5 5.8
      vertex 10 24 5.8
      vertex 10.5 19.5 5.8
    endloop
  endfacet
  facet normal -0 0 1
    outer loop
      vertex 10 24 5.8
      vertex 10.5 23.5 5.8
      vertex 20 24 5.8
    endloop
  endfacet
  facet normal -0 0 1
    outer loop
      vertex 19.5 19.5 5.8
      vertex 20 19 5.8
      vertex 19.5 23.5 5.8
    endloop
  endfacet
  facet normal -0 0 1
    outer loop
      vertex 10.5 19.5 5.8
      vertex 20 19 5.8
      vertex 19.5 19.5 5.8
    endloop
  endfacet
  facet normal 0 0 1
    outer loop
      vertex 10.5 19.5 5.8
      vertex 10 19 5.8
      vertex 20 19 5.8
    endloop
  endfacet
  facet normal 0 0 1
    outer loop
      vertex 10 19 5.8
      vertex 10.5 19.5 5.8
      vertex 10 24 5.8
    endloop
  endfacet
  facet normal 1 -0 0
    outer loop
      vertex 20 19 5.8
      vertex 20 24 0.799999
      vertex 20 24 5.8
    endloop
  endfacet
  facet normal 1 0 0
    outer loop
      vertex 20 24 0.799999
      vertex 20 19 5.8
      vertex 20 19 0.799999
    endloop
  endfacet
  facet normal 0 1 -0
    outer loop
      vertex 20 24 0.799999
      vertex 10 24 5.8
      vertex 20 24 5.8
    endloop
  endfacet
  facet normal 0 1 0
    outer loop
      vertex 10 24 5.8
      vertex 20 24 0.799999
      vertex 10 24 0.799999
    endloop
  endfacet
  facet normal 0 -1 0
    outer loop
      vertex 10 19 0.799999
      vertex 20 19 5.8
      vertex 10 19 5.8
    endloop
  endfacet
  facet normal 0 -1 -0
    outer loop
      vertex 20 19 5.8
      vertex 10 19 0.799999
      vertex 20 19 0.799999
    endloop
  endfacet
  facet normal -1 0 0
    outer loop
      vertex 22 19 0.799999
      vertex 22 24 5.8
      vertex 22 24 0.799999
    endloop
  endfacet
  facet normal -1 -0 0
    outer loop
      vertex 22 24 5.8
      vertex 22 19 0.799999
      vertex 22 19 5.8
    endloop
  endfacet
  facet normal 0 0 1
    outer loop
      vertex 32 24 5.8
      vertex 31.5 23.5 5.8
      vertex 32 19 5.8
    endloop
  endfacet
  facet normal 0 0 1
    outer loop
      vertex 32 24 5.8
      vertex 22.5 23.5 5.8
      vertex 31.5 23.5 5.8
    endloop
  endfacet
  facet normal 0 0 1
    outer loop
      vertex 22.5 23.5 5.8
      vertex 22 24 5.8
      vertex 22.5 19.5 5.8
    endloop
  endfacet
  facet normal -0 0 1
    outer loop
      vertex 22 24 5.8
      vertex 22.5 23.5 5.8
      vertex 32 24 5.8
    endloop
  endfacet
  facet normal -0 0 1
    outer loop
      vertex 31.5 19.5 5.8
      vertex 32 19 5.8
      vertex 31.5 23.5 5.8
    endloop
  endfacet
  facet normal -0 0 1
    outer loop
      vertex 22.5 19.5 5.8
      vertex 32 19 5.8
      vertex 31.5 19.5 5.8
    endloop
  endfacet
  facet normal 0 0 1
    outer loop
      vertex 22.5 19.5 5.8
      vertex 22 19 5.8
      vertex 32 19 5.8
    endloop
  endfacet
  facet normal 0 0 1
    outer loop
      vertex 22 19 5.8
      vertex 22.5 19.5 5.8
      vertex 22 24 5.8
    endloop
  endfacet
  facet normal 1 -0 0
    outer loop
      vertex 32 19 5.8
      vertex 32 24 0.799999
      vertex 32 24 5.8
    endloop
  endfacet
  facet normal 1 0 0
    outer loop
      vertex 32 24 0.799999
      vertex 32 19 5.8
      vertex 32 19 0.799999
    endloop
  endfacet
  facet normal 0 1 -0
    outer loop
      vertex 32 24 0.799999
      vertex 22 24 5.8
      vertex 32 24 5.8
    endloop
  endfacet
  facet normal 0 1 0
    outer loop
      vertex 22 24 5.8
      vertex 32 24 0.799999
      vertex 22 24 0.799999
    endloop
  endfacet
  facet normal 0 -1 0
    outer loop
      vertex 22 19 0.799999
      vertex 32 19 5.8
      vertex 22 19 5.8
    endloop
  endfacet
  facet normal 0 -1 -0
    outer loop
      vertex 32 19 5.8
      vertex 22 19 0.799999
      vertex 32 19 0.799999
    endloop
  endfacet
  facet normal -1 0 0
    outer loop
      vertex 34 19 0.799999
      vertex 34 24 5.8
      vertex 34 24 0.799999
    endloop
  endfacet
  facet normal -1 -0 0
    outer loop
      vertex 34 24 5.8
      vertex 34 19 0.799999
      vertex 34 19 5.8
    endloop
  endfacet
  facet normal 0 0 1
    outer loop
      vertex 44 24 5.8
      vertex 43.5 23.5 5.8
      vertex 44 19 5.8
    endloop
  endfacet
  facet normal 0 0 1
    outer loop
      vertex 44 24 5.8
      vertex 34.5 23.5 5.8
      vertex 43.5 23.5 5.8
    endloop
  endfacet
  facet normal 0 0 1
    outer loop
      vertex 34.5 23.5 5.8
      vertex 34 24 5.8
      vertex 34.5 19.5 5.8
    endloop
  endfacet
  facet normal -0 0 1
    outer loop
      vertex 34 24 5.8
      vertex 34.5 23.5 5.8
      vertex 44 24 5.8
    endloop
  endfacet
  facet normal -0 0 1
    outer loop
      vertex 43.5 19.5 5.8
      vertex 44 19 5.8
      vertex 43.5 23.5 5.8
    endloop
  endfacet
  facet normal -0 0 1
    outer loop
      vertex 34.5 19.5 5.8
      vertex 44 19 5.8
      vertex 43.5 19.5 5.8
    endloop
  endfacet
  facet normal 0 0 1
    outer loop
      vertex 34.5 19.5 5.8
      vertex 34 19 5.8
      vertex 44 19 5.8
    endloop
  endfacet
  facet normal 0 0 1
    outer loop
      vertex 34 19 5.8
      vertex 34.5 19.5 5.8
      vertex 34 24 5.8
    endloop
  endfacet
  facet normal 1 -0 0
    outer loop
      vertex 44 19 5.8
      vertex 44 24 0.799999
      vertex 44 24 5.8
    endloop
  endfacet
  facet normal 1 0 0
    outer loop
      vertex 44 24 0.799999
      vertex 44 19 5.8
      vertex 44 19 0.799999
    endloop
  endfacet
  facet normal 0 1 -0
    outer loop
      vertex 44 24 0.799999
      vertex 34 24 5.8
      vertex 44 24 5.8
    endloop
  endfacet
  facet normal 0 1 0
    outer loop
      vertex 34 24 5.8
      vertex 44 24 0.799999
      vertex 34 24 0.799999
    endloop
  endfacet
  facet normal 0 -1 0
    outer loop
      vertex 34 19 0.799999
      vertex 44 19 5.8
      vertex 34 19 5.8
    endloop
  endfacet
  facet normal 0 -1 -0
    outer loop
      vertex 44 19 5.8
      vertex 34 19 0.799999
      vertex 44 19 0.799999
    endloop
  endfacet
  facet normal -1 0 0
    outer loop
      vertex 46 19 0.799999
      vertex 46 24 5.8
      vertex 46 24 0.799999
    endloop
  endfacet
  facet normal -1 -0 0
    outer loop
      vertex 46 24 5.8
      vertex 46 19 0.799999
      vertex 46 19 5.8
    endloop
  endfacet
  facet normal 0 0 1
    outer loop
      vertex 56 24 5.8
      vertex 55.5 23.5 5.8
      vertex 56 19 5.8
    endloop
  endfacet
  facet normal 0 0 1
    outer loop
      vertex 56 24 5.8
      vertex 46.5 23.5 5.8
      vertex 55.5 23.5 5.8
    endloop
  endfacet
  facet normal 0 0 1
    outer loop
      vertex 46.5 23.5 5.8
      vertex 46 24 5.8
      vertex 46.5 19.5 5.8
    endloop
  endfacet
  facet normal -0 0 1
    outer loop
      vertex 46 24 5.8
      vertex 46.5 23.5 5.8
      vertex 56 24 5.8
    endloop
  endfacet
  facet normal -0 0 1
    outer loop
      vertex 55.5 19.5 5.8
      vertex 56 19 5.8
      vertex 55.5 23.5 5.8
    endloop
  endfacet
  facet normal -0 0 1
    outer loop
      vertex 46.5 19.5 5.8
      vertex 56 19 5.8
      vertex 55.5 19.5 5.8
    endloop
  endfacet
  facet normal 0 0 1
    outer loop
      vertex 46.5 19.5 5.8
      vertex 46 19 5.8
      vertex 56 19 5.8
    endloop
  endfacet
  facet normal 0 0 1
    outer loop
      vertex 46 19 5.8
      vertex 46.5 19.5 5.8
      vertex 46 24 5.8
    endloop
  endfacet
  facet normal 1 -0 0
    outer loop
      vertex 56 19 5.8
      vertex 56 24 0.799999
      vertex 56 24 5.8
    endloop
  endfacet
  facet normal 1 0 0
    outer loop
      vertex 56 24 0.799999
      vertex 56 19 5.8
      vertex 56 19 0.799999
    endloop
  endfacet
  facet normal 0 -1 0
    outer loop
      vertex 46 19 0.799999
      vertex 56 19 5.8
      vertex 46 19 5.8
    endloop
  endfacet
  facet normal 0 -1 -0
    outer loop
      vertex 56 19 5.8
      vertex 46 19 0.799999
      vertex 56 19 0.799999
    endloop
  endfacet
  facet normal 0 1 -0
    outer loop
      vertex 56 24 0.799999
      vertex 46 24 5.8
      vertex 56 24 5.8
    endloop
  endfacet
  facet normal 0 1 0
    outer loop
      vertex 46 24 5.8
      vertex 56 24 0.799999
      vertex 46 24 0.799999
    endloop
  endfacet
  facet normal -1 0 0
    outer loop
      vertex 58 19 0.799999
      vertex 58 24 5.8
      vertex 58 24 0.799999
    endloop
  endfacet
  facet normal -1 -0 0
    outer loop
      vertex 58 24 5.8
      vertex 58 19 0.799999
      vertex 58 19 5.8
    endloop
  endfacet
  facet normal 0 0 1
    outer loop
      vertex 68 24 5.8
      vertex 67.5 23.5 5.8
      vertex 68 19 5.8
    endloop
  endfacet
  facet normal 0 0 1
    outer loop
      vertex 68 24 5.8
      vertex 58.5 23.5 5.8
      vertex 67.5 23.5 5.8
    endloop
  endfacet
  facet normal 0 0 1
    outer loop
      vertex 58.5 23.5 5.8
      vertex 58 24 5.8
      vertex 58.5 19.5 5.8
    endloop
  endfacet
  facet normal -0 0 1
    outer loop
      vertex 58 24 5.8
      vertex 58.5 23.5 5.8
      vertex 68 24 5.8
    endloop
  endfacet
  facet normal -0 0 1
    outer loop
      vertex 67.5 19.5 5.8
      vertex 68 19 5.8
      vertex 67.5 23.5 5.8
    endloop
  endfacet
  facet normal -0 0 1
    outer loop
      vertex 58.5 19.5 5.8
      vertex 68 19 5.8
      vertex 67.5 19.5 5.8
    endloop
  endfacet
  facet normal 0 0 1
    outer loop
      vertex 58.5 19.5 5.8
      vertex 58 19 5.8
      vertex 68 19 5.8
    endloop
  endfacet
  facet normal 0 0 1
    outer loop
      vertex 58 19 5.8
      vertex 58.5 19.5 5.8
      vertex 58 24 5.8
    endloop
  endfacet
  facet normal 1 -0 0
    outer loop
      vertex 68 19 5.8
      vertex 68 24 0.799999
      vertex 68 24 5.8
    endloop
  endfacet
  facet normal 1 0 0
    outer loop
      vertex 68 24 0.799999
      vertex 68 19 5.8
      vertex 68 19 0.799999
    endloop
  endfacet
  facet normal 0 1 -0
    outer loop
      vertex 68 24 0.799999
      vertex 58 24 5.8
      vertex 68 24 5.8
    endloop
  endfacet
  facet normal 0 1 0
    outer loop
      vertex 58 24 5.8
      vertex 68 24 0.799999
      vertex 58 24 0.799999
    endloop
  endfacet
  facet normal 0 -1 0
    outer loop
      vertex 58 19 0.799999
      vertex 68 19 5.8
      vertex 58 19 5.8
    endloop
  endfacet
  facet normal 0 -1 -0
    outer loop
      vertex 68 19 5.8
      vertex 58 19 0.799999
      vertex 68 19 0.799999
    endloop
  endfacet
  facet normal -1 0 0
    outer loop
      vertex 70 19 0.799999
      vertex 70 24 5.8
      vertex 70 24 0.799999
    endloop
  endfacet
  facet normal -1 -0 0
    outer loop
      vertex 70 24 5.8
      vertex 70 19 0.799999
      vertex 70 19 5.8
    endloop
  endfacet
  facet normal 0 0 1
    outer loop
      vertex 80 24 5.8
      vertex 79.5 23.5 5.8
      vertex 80 19 5.8
    endloop
  endfacet
  facet normal 0 0 1
    outer loop
      vertex 80 24 5.8
      vertex 70.5 23.5 5.8
      vertex 79.5 23.5 5.8
    endloop
  endfacet
  facet normal 0 0 1
    outer loop
      vertex 70.5 23.5 5.8
      vertex 70 24 5.8
      vertex 70.5 19.5 5.8
    endloop
  endfacet
  facet normal -0 0 1
    outer loop
      vertex 70 24 5.8
      vertex 70.5 23.5 5.8
      vertex 80 24 5.8
    endloop
  endfacet
  facet normal -0 0 1
    outer loop
      vertex 79.5 19.5 5.8
      vertex 80 19 5.8
      vertex 79.5 23.5 5.8
    endloop
  endfacet
  facet normal -0 0 1
    outer loop
      vertex 70.5 19.5 5.8
      vertex 80 19 5.8
      vertex 79.5 19.5 5.8
    endloop
  endfacet
  facet normal 0 0 1
    outer loop
      vertex 70.5 19.5 5.8
      vertex 70 19 5.8
      vertex 80 19 5.8
    endloop
  endfacet
  facet normal 0 0 1
    outer loop
      vertex 70 19 5.8
      vertex 70.5 19.5 5.8
      vertex 70 24 5.8
    endloop
  endfacet
  facet normal 1 -0 0
    outer loop
      vertex 80 19 5.8
      vertex 80 24 0.799999
      vertex 80 24 5.8
    endloop
  endfacet
  facet normal 1 0 0
    outer loop
      vertex 80 24 0.799999
      vertex 80 19 5.8
      vertex 80 19 0.799999
    endloop
  endfacet
  facet normal 0 1 -0
    outer loop
      vertex 80 24 0.799999
      vertex 70 24 5.8
      vertex 80 24 5.8
    endloop
  endfacet
  facet normal 0 1 0
    outer loop
      vertex 70 24 5.8
      vertex 80 24 0.799999
      vertex 70 24 0.799999
    endloop
  endfacet
  facet normal 0 -1 0
    outer loop
      vertex 70 19 0.799999
      vertex 80 19 5.8
      vertex 70 19 5.8
    endloop
  endfacet
  facet normal 0 -1 -0
    outer loop
      vertex 80 19 5.8
      vertex 70 19 0.799999
      vertex 80 19 0.799999
    endloop
  endfacet
  facet normal -1 0 0
    outer loop
      vertex 82 19 0.799999
      vertex 82 24 5.8
      vertex 82 24 0.799999
    endloop
  endfacet
  facet normal -1 -0 0
    outer loop
      vertex 82 24 5.8
      vertex 82 19 0.799999
      vertex 82 19 5.8
    endloop
  endfacet
  facet normal 0 0 1
    outer loop
      vertex 92 24 5.8
      vertex 91.5 23.5 5.8
      vertex 92 19 5.8
    endloop
  endfacet
  facet normal 0 0 1
    outer loop
      vertex 92 24 5.8
      vertex 82.5 23.5 5.8
      vertex 91.5 23.5 5.8
    endloop
  endfacet
  facet normal 0 0 1
    outer loop
      vertex 82.5 23.5 5.8
      vertex 82 24 5.8
      vertex 82.5 19.5 5.8
    endloop
  endfacet
  facet normal -0 0 1
    outer loop
      vertex 82 24 5.8
      vertex 82.5 23.5 5.8
      vertex 92 24 5.8
    endloop
  endfacet
  facet normal -0 0 1
    outer loop
      vertex 91.5 19.5 5.8
      vertex 92 19 5.8
      vertex 91.5 23.5 5.8
    endloop
  endfacet
  facet normal -0 0 1
    outer loop
      vertex 82.5 19.5 5.8
      vertex 92 19 5.8
      vertex 91.5 19.5 5.8
    endloop
  endfacet
  facet normal 0 0 1
    outer loop
      vertex 82.5 19.5 5.8
      vertex 82 19 5.8
      vertex 92 19 5.8
    endloop
  endfacet
  facet normal 0 0 1
    outer loop
      vertex 82 19 5.8
      vertex 82.5 19.5 5.8
      vertex 82 24 5.8
    endloop
  endfacet
  facet normal 1 -0 0
    outer loop
      vertex 92 19 5.8
      vertex 92 24 0.799999
      vertex 92 24 5.8
    endloop
  endfacet
  facet normal 1 0 0
    outer loop
      vertex 92 24 0.799999
      vertex 92 19 5.8
      vertex 92 19 0.799999
    endloop
  endfacet
  facet normal 0 1 -0
    outer loop
      vertex 92 24 0.799999
      vertex 82 24 5.8
      vertex 92 24 5.8
    endloop
  endfacet
  facet normal 0 1 0
    outer loop
      vertex 82 24 5.8
      vertex 92 24 0.799999
      vertex 82 24 0.799999
    endloop
  endfacet
  facet normal 0 -1 0
    outer loop
      vertex 82 19 0.799999
      vertex 92 19 5.8
      vertex 82 19 5.8
    endloop
  endfacet
  facet normal 0 -1 -0
    outer loop
      vertex 92 19 5.8
      vertex 82 19 0.799999
      vertex 92 19 0.799999
    endloop
  endfacet
  facet normal -1 0 0
    outer loop
      vertex 94 19 0.799999
      vertex 94 24 5.8
      vertex 94 24 0.799999
    endloop
  endfacet
  facet normal -1 -0 0
    outer loop
      vertex 94 24 5.8
      vertex 94 19 0.799999
      vertex 94 19 5.8
    endloop
  endfacet
  facet normal 0 0 1
    outer loop
      vertex 104 24 5.8
      vertex 103.5 23.5 5.8
      vertex 104 19 5.8
    endloop
  endfacet
  facet normal 0 0 1
    outer loop
      vertex 104 24 5.8
      vertex 94.5 23.5 5.8
      vertex 103.5 23.5 5.8
    endloop
  endfacet
  facet normal 0 0 1
    outer loop
      vertex 94.5 23.5 5.8
      vertex 94 24 5.8
      vertex 94.5 19.5 5.8
    endloop
  endfacet
  facet normal -0 0 1
    outer loop
      vertex 94 24 5.8
      vertex 94.5 23.5 5.8
      vertex 104 24 5.8
    endloop
  endfacet
  facet normal -0 0 1
    outer loop
      vertex 103.5 19.5 5.8
      vertex 104 19 5.8
      vertex 103.5 23.5 5.8
    endloop
  endfacet
  facet normal -0 0 1
    outer loop
      vertex 94.5 19.5 5.8
      vertex 104 19 5.8
      vertex 103.5 19.5 5.8
    endloop
  endfacet
  facet normal 0 0 1
    outer loop
      vertex 94.5 19.5 5.8
      vertex 94 19 5.8
      vertex 104 19 5.8
    endloop
  endfacet
  facet normal 0 0 1
    outer loop
      vertex 94 19 5.8
      vertex 94.5 19.5 5.8
      vertex 94 24 5.8
    endloop
  endfacet
  facet normal 1 -0 0
    outer loop
      vertex 104 19 5.8
      vertex 104 24 0.799999
      vertex 104 24 5.8
    endloop
  endfacet
  facet normal 1 0 0
    outer loop
      vertex 104 24 0.799999
      vertex 104 19 5.8
      vertex 104 19 0.799999
    endloop
  endfacet
  facet normal 0 1 -0
    outer loop
      vertex 104 24 0.799999
      vertex 94 24 5.8
      vertex 104 24 5.8
    endloop
  endfacet
  facet normal 0 1 0
    outer loop
      vertex 94 24 5.8
      vertex 104 24 0.799999
      vertex 94 24 0.799999
    endloop
  endfacet
  facet normal 0 -1 0
    outer loop
      vertex 94 19 0.799999
      vertex 104 19 5.8
      vertex 94 19 5.8
    endloop
  endfacet
  facet normal 0 -1 -0
    outer loop
      vertex 104 19 5.8
      vertex 94 19 0.799999
      vertex 104 19 0.799999
    endloop
  endfacet
  facet normal -1 0 0
    outer loop
      vertex 0 0 0
      vertex 0 30 0.799999
      vertex 0 30 0
    endloop
  endfacet
  facet normal -1 -0 0
    outer loop
      vertex 0 30 0.799999
      vertex 0 0 0
      vertex 0 0 0.799999
    endloop
  endfacet
  facet normal -0 0 1
    outer loop
      vertex 10 19 0.799999
      vertex 20 15 0.799999
      vertex 20 19 0.799999
    endloop
  endfacet
  facet normal 0 0 1
    outer loop
      vertex 20 15 0.799999
      vertex 10 19 0.799999
      vertex 10 15 0.799999
    endloop
  endfacet
  facet normal -0 0 1
    outer loop
      vertex 22 19 0.799999
      vertex 32 15 0.799999
      vertex 32 19 0.799999
    endloop
  endfacet
  facet normal 0 0 1
    outer loop
      vertex 32 15 0.799999
      vertex 22 19 0.799999
      vertex 22 15 0.799999
    endloop
  endfacet
  facet normal -0 0 1
    outer loop
      vertex 34 19 0.799999
      vertex 44 15 0.799999
      vertex 44 19 0.799999
    endloop
  endfacet
  facet normal 0 0 1
    outer loop
      vertex 44 15 0.799999
      vertex 34 19 0.799999
      vertex 34 15 0.799999
    endloop
  endfacet
  facet normal -0 0 1
    outer loop
      vertex 46 19 0.799999
      vertex 56 15 0.799999
      vertex 56 19 0.799999
    endloop
  endfacet
  facet normal 0 0 1
    outer loop
      vertex 56 15 0.799999
      vertex 46 19 0.799999
      vertex 46 15 0.799999
    endloop
  endfacet
  facet normal -0 0 1
    outer loop
      vertex 58 19 0.799999
      vertex 68 15 0.799999
      vertex 68 19 0.799999
    endloop
  endfacet
  facet normal 0 0 1
    outer loop
      vertex 68 15 0.799999
      vertex 58 19 0.799999
      vertex 58 15 0.799999
    endloop
  endfacet
  facet normal -0 0 1
    outer loop
      vertex 70 19 0.799999
      vertex 80 15 0.799999
      vertex 80 19 0.799999
    endloop
  endfacet
  facet normal 0 0 1
    outer loop
      vertex 80 15 0.799999
      vertex 70 19 0.799999
      vertex 70 15 0.799999
    endloop
  endfacet
  facet normal -0 0 1
    outer loop
      vertex 82 19 0.799999
      vertex 92 15 0.799999
      vertex 92 19 0.799999
    endloop
  endfacet
  facet normal 0 0 1
    outer loop
      vertex 92 15 0.799999
      vertex 82 19 0.799999
      vertex 82 15 0.799999
    endloop
  endfacet
  facet normal -0 0 1
    outer loop
      vertex 94 19 0.799999
      vertex 104 15 0.799999
      vertex 104 19 0.799999
    endloop
  endfacet
  facet normal 0 0 1
    outer loop
      vertex 104 15 0.799999
      vertex 94 19 0.799999
      vertex 94 15 0.799999
    endloop
  endfacet
  facet normal 0 0 1
    outer loop
      vertex 104 19 0.799999
      vertex 140 30 0.799999
      vertex 104 24 0.799999
    endloop
  endfacet
  facet normal 0 0 1
    outer loop
      vertex 140 30 0.799999
      vertex 94 24 0.799999
      vertex 104 24 0.799999
    endloop
  endfacet
  facet normal 0 0 1
    outer loop
      vertex 92 19 0.799999
      vertex 94 19 0.799999
      vertex 94 24 0.799999
    endloop
  endfacet
  facet normal 0 0 1
    outer loop
      vertex 94 19 0.799999
      vertex 92 19 0.799999
      vertex 94 15 0.799999
    endloop
  endfacet
  facet normal 0 0 1
    outer loop
      vertex 92 19 0.799999
      vertex 94 24 0.799999
      vertex 92 24 0.799999
    endloop
  endfacet
  facet normal 0 0 1
    outer loop
      vertex 140 30 0.799999
      vertex 92 24 0.799999
      vertex 94 24 0.799999
    endloop
  endfacet
  facet normal 0 0 1
    outer loop
      vertex 140 30 0.799999
      vertex 82 24 0.799999
      vertex 92 24 0.799999
    endloop
  endfacet
  facet normal 0 0 1
    outer loop
      vertex 80 19 0.799999
      vertex 82 19 0.799999
      vertex 82 24 0.799999
    endloop
  endfacet
  facet normal 0 0 1
    outer loop
      vertex 82 19 0.799999
      vertex 80 19 0.799999
      vertex 82 15 0.799999
    endloop
  endfacet
  facet normal 0 0 1
    outer loop
      vertex 80 19 0.799999
      vertex 82 24 0.799999
      vertex 80 24 0.799999
    endloop
  endfacet
  facet normal 0 0 1
    outer loop
      vertex 140 30 0.799999
      vertex 80 24 0.799999
      vertex 82 24 0.799999
    endloop
  endfacet
  facet normal 0 0 1
    outer loop
      vertex 140 30 0.799999
      vertex 70 24 0.799999
      vertex 80 24 0.799999
    endloop
  endfacet
  facet normal 0 0 1
    outer loop
      vertex 68 19 0.799999
      vertex 70 19 0.799999
      vertex 70 24 0.799999
    endloop
  endfacet
  facet normal 0 0 1
    outer loop
      vertex 70 19 0.799999
      vertex 68 19 0.799999
      vertex 70 15 0.799999
    endloop
  endfacet
  facet normal 0 0 1
    outer loop
      vertex 68 19 0.799999
      vertex 70 24 0.799999
      vertex 68 24 0.799999
    endloop
  endfacet
  facet normal 0 0 1
    outer loop
      vertex 140 30 0.799999
      vertex 68 24 0.799999
      vertex 70 24 0.799999
    endloop
  endfacet
  facet normal -0 0 1
    outer loop
      vertex 0 30 0.799999
      vertex 68 24 0.799999
      vertex 140 30 0.799999
    endloop
  endfacet
  facet normal 0 0 1
    outer loop
      vertex 56 19 0.799999
      vertex 58 19 0.799999
      vertex 58 24 0.799999
    endloop
  endfacet
  facet normal 0 0 1
    outer loop
      vertex 58 19 0.799999
      vertex 56 19 0.799999
      vertex 58 15 0.799999
    endloop
  endfacet
  facet normal 0 0 1
    outer loop
      vertex 56 19 0.799999
      vertex 58 24 0.799999
      vertex 56 24 0.799999
    endloop
  endfacet
  facet normal 0 0 1
    outer loop
      vertex 68 24 0.799999
      vertex 0 30 0.799999
      vertex 58 24 0.799999
    endloop
  endfacet
  facet normal 0 0 1
    outer loop
      vertex 58 24 0.799999
      vertex 0 30 0.799999
      vertex 56 24 0.799999
    endloop
  endfacet
  facet normal 0 0 1
    outer loop
      vertex 44 19 0.799999
      vertex 46 19 0.799999
      vertex 46 24 0.799999
    endloop
  endfacet
  facet normal 0 0 1
    outer loop
      vertex 46 19 0.799999
      vertex 44 19 0.799999
      vertex 46 15 0.799999
    endloop
  endfacet
  facet normal 0 0 1
    outer loop
      vertex 44 19 0.799999
      vertex 46 24 0.799999
      vertex 44 24 0.799999
    endloop
  endfacet
  facet normal 0 0 1
    outer loop
      vertex 56 24 0.799999
      vertex 0 30 0.799999
      vertex 46 24 0.799999
    endloop
  endfacet
  facet normal 0 0 1
    outer loop
      vertex 46 24 0.799999
      vertex 0 30 0.799999
      vertex 44 24 0.799999
    endloop
  endfacet
  facet normal 0 0 1
    outer loop
      vertex 32 19 0.799999
      vertex 34 19 0.799999
      vertex 34 24 0.799999
    endloop
  endfacet
  facet normal 0 0 1
    outer loop
      vertex 34 19 0.799999
      vertex 32 19 0.799999
      vertex 34 15 0.799999
    endloop
  endfacet
  facet normal 0 0 1
    outer loop
      vertex 32 19 0.799999
      vertex 34 24 0.799999
      vertex 32 24 0.799999
    endloop
  endfacet
  facet normal 0 0 1
    outer loop
      vertex 44 24 0.799999
      vertex 0 30 0.799999
      vertex 34 24 0.799999
    endloop
  endfacet
  facet normal 0 0 1
    outer loop
      vertex 34 24 0.799999
      vertex 0 30 0.799999
      vertex 32 24 0.799999
    endloop
  endfacet
  facet normal 0 0 1
    outer loop
      vertex 20 19 0.799999
      vertex 22 19 0.799999
      vertex 22 24 0.799999
    endloop
  endfacet
  facet normal 0 0 1
    outer loop
      vertex 22 19 0.799999
      vertex 20 19 0.799999
      vertex 22 15 0.799999
    endloop
  endfacet
  facet normal 0 0 1
    outer loop
      vertex 20 19 0.799999
      vertex 22 24 0.799999
      vertex 20 24 0.799999
    endloop
  endfacet
  facet normal 0 0 1
    outer loop
      vertex 32 24 0.799999
      vertex 0 30 0.799999
      vertex 22 24 0.799999
    endloop
  endfacet
  facet normal 0 0 1
    outer loop
      vertex 22 24 0.799999
      vertex 0 30 0.799999
      vertex 20 24 0.799999
    endloop
  endfacet
  facet normal 0 0 1
    outer loop
      vertex 0 30 0.799999
      vertex 10 19 0.799999
      vertex 10 24 0.799999
    endloop
  endfacet
  facet normal 0 0 1
    outer loop
      vertex 10 19 0.799999
      vertex 0 30 0.799999
      vertex 10 15 0.799999
    endloop
  endfacet
  facet normal 0 0 1
    outer loop
      vertex 0 0 0.799999
      vertex 10 15 0.799999
      vertex 0 30 0.799999
    endloop
  endfacet
  facet normal 0 0 1
    outer loop
      vertex 20 24 0.799999
      vertex 0 30 0.799999
      vertex 10 24 0.799999
    endloop
  endfacet
  facet normal 0 0 1
    outer loop
      vertex 104 15 0.799999
      vertex 140 30 0.799999
      vertex 104 19 0.799999
    endloop
  endfacet
  facet normal 0 0 1
    outer loop
      vertex 140 30 0.799999
      vertex 104 15 0.799999
      vertex 140 0 0.799999
    endloop
  endfacet
  facet normal -0 0 1
    outer loop
      vertex 104 10 0.799999
      vertex 140 0 0.799999
      vertex 104 15 0.799999
    endloop
  endfacet
  facet normal -0 0 1
    outer loop
      vertex 94 10 0.799999
      vertex 140 0 0.799999
      vertex 104 10 0.799999
    endloop
  endfacet
  facet normal 0 0 1
    outer loop
      vertex 92 15 0.799999
      vertex 94 15 0.799999
      vertex 92 19 0.799999
    endloop
  endfacet
  facet normal 0 0 1
    outer loop
      vertex 94 15 0.799999
      vertex 92 15 0.799999
      vertex 94 10 0.799999
    endloop
  endfacet
  facet normal 0 0 1
    outer loop
      vertex 92 10 0.799999
      vertex 94 10 0.799999
      vertex 92 15 0.799999
    endloop
  endfacet
  facet normal -0 0 1
    outer loop
      vertex 92 10 0.799999
      vertex 140 0 0.799999
      vertex 94 10 0.799999
    endloop
  endfacet
  facet normal -0 0 1
    outer loop
      vertex 82 10 0.799999
      vertex 140 0 0.799999
      vertex 92 10 0.799999
    endloop
  endfacet
  facet normal 0 0 1
    outer loop
      vertex 80 15 0.799999
      vertex 82 15 0.799999
      vertex 80 19 0.799999
    endloop
  endfacet
  facet normal 0 0 1
    outer loop
      vertex 82 15 0.799999
      vertex 80 15 0.799999
      vertex 82 10 0.799999
    endloop
  endfacet
  facet normal 0 0 1
    outer loop
      vertex 80 10 0.799999
      vertex 82 10 0.799999
      vertex 80 15 0.799999
    endloop
  endfacet
  facet normal -0 0 1
    outer loop
      vertex 80 10 0.799999
      vertex 140 0 0.799999
      vertex 82 10 0.799999
    endloop
  endfacet
  facet normal -0 0 1
    outer loop
      vertex 70 10 0.799999
      vertex 140 0 0.799999
      vertex 80 10 0.799999
    endloop
  endfacet
  facet normal 0 0 1
    outer loop
      vertex 68 15 0.799999
      vertex 70 15 0.799999
      vertex 68 19 0.799999
    endloop
  endfacet
  facet normal 0 0 1
    outer loop
      vertex 70 15 0.799999
      vertex 68 15 0.799999
      vertex 70 10 0.799999
    endloop
  endfacet
  facet normal 0 0 1
    outer loop
      vertex 68 10 0.799999
      vertex 70 10 0.799999
      vertex 68 15 0.799999
    endloop
  endfacet
  facet normal -0 0 1
    outer loop
      vertex 68 10 0.799999
      vertex 140 0 0.799999
      vertex 70 10 0.799999
    endloop
  endfacet
  facet normal 0 0 1
    outer loop
      vertex 0 0 0.799999
      vertex 68 10 0.799999
      vertex 58 10 0.799999
    endloop
  endfacet
  facet normal 0 0 1
    outer loop
      vertex 56 15 0.799999
      vertex 58 15 0.799999
      vertex 56 19 0.799999
    endloop
  endfacet
  facet normal 0 0 1
    outer loop
      vertex 58 15 0.799999
      vertex 56 15 0.799999
      vertex 58 10 0.799999
    endloop
  endfacet
  facet normal 0 0 1
    outer loop
      vertex 56 10 0.799999
      vertex 58 10 0.799999
      vertex 56 15 0.799999
    endloop
  endfacet
  facet normal 0 0 1
    outer loop
      vertex 0 0 0.799999
      vertex 58 10 0.799999
      vertex 56 10 0.799999
    endloop
  endfacet
  facet normal 0 0 1
    outer loop
      vertex 0 0 0.799999
      vertex 56 10 0.799999
      vertex 46 10 0.799999
    endloop
  endfacet
  facet normal 0 0 1
    outer loop
      vertex 44 15 0.799999
      vertex 46 15 0.799999
      vertex 44 19 0.799999
    endloop
  endfacet
  facet normal 0 0 1
    outer loop
      vertex 46 15 0.799999
      vertex 44 15 0.799999
      vertex 46 10 0.799999
    endloop
  endfacet
  facet normal 0 0 1
    outer loop
      vertex 44 10 0.799999
      vertex 46 10 0.799999
      vertex 44 15 0.799999
    endloop
  endfacet
  facet normal 0 0 1
    outer loop
      vertex 0 0 0.799999
      vertex 46 10 0.799999
      vertex 44 10 0.799999
    endloop
  endfacet
  facet normal 0 0 1
    outer loop
      vertex 0 0 0.799999
      vertex 44 10 0.799999
      vertex 34 10 0.799999
    endloop
  endfacet
  facet normal 0 0 1
    outer loop
      vertex 32 15 0.799999
      vertex 34 15 0.799999
      vertex 32 19 0.799999
    endloop
  endfacet
  facet normal 0 0 1
    outer loop
      vertex 34 15 0.799999
      vertex 32 15 0.799999
      vertex 34 10 0.799999
    endloop
  endfacet
  facet normal 0 0 1
    outer loop
      vertex 32 10 0.799999
      vertex 34 10 0.799999
      vertex 32 15 0.799999
    endloop
  endfacet
  facet normal 0 0 1
    outer loop
      vertex 0 0 0.799999
      vertex 34 10 0.799999
      vertex 32 10 0.799999
    endloop
  endfacet
  facet normal 0 0 1
    outer loop
      vertex 0 0 0.799999
      vertex 32 10 0.799999
      vertex 22 10 0.799999
    endloop
  endfacet
  facet normal 0 0 1
    outer loop
      vertex 20 15 0.799999
      vertex 22 15 0.799999
      vertex 20 19 0.799999
    endloop
  endfacet
  facet normal 0 0 1
    outer loop
      vertex 22 15 0.799999
      vertex 20 15 0.799999
      vertex 22 10 0.799999
    endloop
  endfacet
  facet normal 0 0 1
    outer loop
      vertex 20 10 0.799999
      vertex 22 10 0.799999
      vertex 20 15 0.799999
    endloop
  endfacet
  facet normal 0 0 1
    outer loop
      vertex 0 0 0.799999
      vertex 22 10 0.799999
      vertex 20 10 0.799999
    endloop
  endfacet
  facet normal 0 0 1
    outer loop
      vertex 0 0 0.799999
      vertex 20 10 0.799999
      vertex 10 10 0.799999
    endloop
  endfacet
  facet normal 0 0 1
    outer loop
      vertex 68 10 0.799999
      vertex 0 0 0.799999
      vertex 140 0 0.799999
    endloop
  endfacet
  facet normal 0 0 1
    outer loop
      vertex 10 15 0.799999
      vertex 0 0 0.799999
      vertex 10 10 0.799999
    endloop
  endfacet
  facet normal 1 -0 0
    outer loop
      vertex 140 0 0.799999
      vertex 140 30 0
      vertex 140 30 0.799999
    endloop
  endfacet
  facet normal 1 0 0
    outer loop
      vertex 140 30 0
      vertex 140 0 0.799999
      vertex 140 0 0
    endloop
  endfacet
  facet normal 0 1 -0
    outer loop
      vertex 140 30 0
      vertex 0 30 0.799999
      vertex 140 30 0.799999
    endloop
  endfacet
  facet normal 0 1 0
    outer loop
      vertex 0 30 0.799999
      vertex 140 30 0
      vertex 0 30 0
    endloop
  endfacet
  facet normal 0 -1 0
    outer loop
      vertex 0 0 0
      vertex 140 0 0.799999
      vertex 0 0 0.799999
    endloop
  endfacet
  facet normal 0 -1 -0
    outer loop
      vertex 140 0 0.799999
      vertex 0 0 0
      vertex 140 0 0
    endloop
  endfacet
  facet normal 1 -0 0
    outer loop
      vertex 10.5 10.5 5.8
      vertex 10.5 14.5 0
      vertex 10.5 14.5 5.8
    endloop
  endfacet
  facet normal 1 0 0
    outer loop
      vertex 10.5 14.5 0
      vertex 10.5 10.5 5.8
      vertex 10.5 10.5 0
    endloop
  endfacet
  facet normal -1 0 0
    outer loop
      vertex 19.5 10.5 0
      vertex 19.5 14.5 5.8
      vertex 19.5 14.5 0
    endloop
  endfacet
  facet normal -1 -0 0
    outer loop
      vertex 19.5 14.5 5.8
      vertex 19.5 10.5 0
      vertex 19.5 10.5 5.8
    endloop
  endfacet
  facet normal 0 1 -0
    outer loop
      vertex 19.5 10.5 0
      vertex 10.5 10.5 5.8
      vertex 19.5 10.5 5.8
    endloop
  endfacet
  facet normal 0 1 0
    outer loop
      vertex 10.5 10.5 5.8
      vertex 19.5 10.5 0
      vertex 10.5 10.5 0
    endloop
  endfacet
  facet normal 0 -1 0
    outer loop
      vertex 10.5 14.5 0
      vertex 19.5 14.5 5.8
      vertex 10.5 14.5 5.8
    endloop
  endfacet
  facet normal 0 -1 -0
    outer loop
      vertex 19.5 14.5 5.8
      vertex 10.5 14.5 0
      vertex 19.5 14.5 0
    endloop
  endfacet
  facet normal 1 -0 0
    outer loop
      vertex 22.5 10.5 5.8
      vertex 22.5 14.5 0
      vertex 22.5 14.5 5.8
    endloop
  endfacet
  facet normal 1 0 0
    outer loop
      vertex 22.5 14.5 0
      vertex 22.5 10.5 5.8
      vertex 22.5 10.5 0
    endloop
  endfacet
  facet normal -1 0 0
    outer loop
      vertex 31.5 10.5 0
      vertex 31.5 14.5 5.8
      vertex 31.5 14.5 0
    endloop
  endfacet
  facet normal -1 -0 0
    outer loop
      vertex 31.5 14.5 5.8
      vertex 31.5 10.5 0
      vertex 31.5 10.5 5.8
    endloop
  endfacet
  facet normal 0 -1 0
    outer loop
      vertex 22.5 14.5 0
      vertex 31.5 14.5 5.8
      vertex 22.5 14.5 5.8
    endloop
  endfacet
  facet normal 0 -1 -0
    outer loop
      vertex 31.5 14.5 5.8
      vertex 22.5 14.5 0
      vertex 31.5 14.5 0
    endloop
  endfacet
  facet normal 0 1 -0
    outer loop
      vertex 31.5 10.5 0
      vertex 22.5 10.5 5.8
      vertex 31.5 10.5 5.8
    endloop
  endfacet
  facet normal 0 1 0
    outer loop
      vertex 22.5 10.5 5.8
      vertex 31.5 10.5 0
      vertex 22.5 10.5 0
    endloop
  endfacet
  facet normal 1 -0 0
    outer loop
      vertex 34.5 10.5 5.8
      vertex 34.5 14.5 0
      vertex 34.5 14.5 5.8
    endloop
  endfacet
  facet normal 1 0 0
    outer loop
      vertex 34.5 14.5 0
      vertex 34.5 10.5 5.8
      vertex 34.5 10.5 0
    endloop
  endfacet
  facet normal -1 0 0
    outer loop
      vertex 43.5 10.5 0
      vertex 43.5 14.5 5.8
      vertex 43.5 14.5 0
    endloop
  endfacet
  facet normal -1 -0 0
    outer loop
      vertex 43.5 14.5 5.8
      vertex 43.5 10.5 0
      vertex 43.5 10.5 5.8
    endloop
  endfacet
  facet normal 0 1 -0
    outer loop
      vertex 43.5 10.5 0
      vertex 34.5 10.5 5.8
      vertex 43.5 10.5 5.8
    endloop
  endfacet
  facet normal 0 1 0
    outer loop
      vertex 34.5 10.5 5.8
      vertex 43.5 10.5 0
      vertex 34.5 10.5 0
    endloop
  endfacet
  facet normal 0 -1 0
    outer loop
      vertex 34.5 14.5 0
      vertex 43.5 14.5 5.8
      vertex 34.5 14.5 5.8
    endloop
  endfacet
  facet normal 0 -1 -0
    outer loop
      vertex 43.5 14.5 5.8
      vertex 34.5 14.5 0
      vertex 43.5 14.5 0
    endloop
  endfacet
  facet normal 1 -0 0
    outer loop
      vertex 46.5 10.5 5.8
      vertex 46.5 14.5 0
      vertex 46.5 14.5 5.8
    endloop
  endfacet
  facet normal 1 0 0
    outer loop
      vertex 46.5 14.5 0
      vertex 46.5 10.5 5.8
      vertex 46.5 10.5 0
    endloop
  endfacet
  facet normal -1 0 0
    outer loop
      vertex 55.5 10.5 0
      vertex 55.5 14.5 5.8
      vertex 55.5 14.5 0
    endloop
  endfacet
  facet normal -1 -0 0
    outer loop
      vertex 55.5 14.5 5.8
      vertex 55.5 10.5 0
      vertex 55.5 10.5 5.8
    endloop
  endfacet
  facet normal 0 1 -0
    outer loop
      vertex 55.5 10.5 0
      vertex 46.5 10.5 5.8
      vertex 55.5 10.5 5.8
    endloop
  endfacet
  facet normal 0 1 0
    outer loop
      vertex 46.5 10.5 5.8
      vertex 55.5 10.5 0
      vertex 46.5 10.5 0
    endloop
  endfacet
  facet normal 0 -1 0
    outer loop
      vertex 46.5 14.5 0
      vertex 55.5 14.5 5.8
      vertex 46.5 14.5 5.8
    endloop
  endfacet
  facet normal 0 -1 -0
    outer loop
      vertex 55.5 14.5 5.8
      vertex 46.5 14.5 0
      vertex 55.5 14.5 0
    endloop
  endfacet
  facet normal 1 -0 0
    outer loop
      vertex 58.5 10.5 5.8
      vertex 58.5 14.5 0
      vertex 58.5 14.5 5.8
    endloop
  endfacet
  facet normal 1 0 0
    outer loop
      vertex 58.5 14.5 0
      vertex 58.5 10.5 5.8
      vertex 58.5 10.5 0
    endloop
  endfacet
  facet normal -1 0 0
    outer loop
      vertex 67.5 10.5 0
      vertex 67.5 14.5 5.8
      vertex 67.5 14.5 0
    endloop
  endfacet
  facet normal -1 -0 0
    outer loop
      vertex 67.5 14.5 5.8
      vertex 67.5 10.5 0
      vertex 67.5 10.5 5.8
    endloop
  endfacet
  facet normal 0 1 -0
    outer loop
      vertex 67.5 10.5 0
      vertex 58.5 10.5 5.8
      vertex 67.5 10.5 5.8
    endloop
  endfacet
  facet normal 0 1 0
    outer loop
      vertex 58.5 10.5 5.8
      vertex 67.5 10.5 0
      vertex 58.5 10.5 0
    endloop
  endfacet
  facet normal 0 -1 0
    outer loop
      vertex 58.5 14.5 0
      vertex 67.5 14.5 5.8
      vertex 58.5 14.5 5.8
    endloop
  endfacet
  facet normal 0 -1 -0
    outer loop
      vertex 67.5 14.5 5.8
      vertex 58.5 14.5 0
      vertex 67.5 14.5 0
    endloop
  endfacet
  facet normal 1 -0 0
    outer loop
      vertex 70.5 10.5 5.8
      vertex 70.5 14.5 0
      vertex 70.5 14.5 5.8
    endloop
  endfacet
  facet normal 1 0 0
    outer loop
      vertex 70.5 14.5 0
      vertex 70.5 10.5 5.8
      vertex 70.5 10.5 0
    endloop
  endfacet
  facet normal -1 0 0
    outer loop
      vertex 79.5 10.5 0
      vertex 79.5 14.5 5.8
      vertex 79.5 14.5 0
    endloop
  endfacet
  facet normal -1 -0 0
    outer loop
      vertex 79.5 14.5 5.8
      vertex 79.5 10.5 0
      vertex 79.5 10.5 5.8
    endloop
  endfacet
  facet normal 0 1 -0
    outer loop
      vertex 79.5 10.5 0
      vertex 70.5 10.5 5.8
      vertex 79.5 10.5 5.8
    endloop
  endfacet
  facet normal 0 1 0
    outer loop
      vertex 70.5 10.5 5.8
      vertex 79.5 10.5 0
      vertex 70.5 10.5 0
    endloop
  endfacet
  facet normal 0 -1 0
    outer loop
      vertex 70.5 14.5 0
      vertex 79.5 14.5 5.8
      vertex 70.5 14.5 5.8
    endloop
  endfacet
  facet normal 0 -1 -0
    outer loop
      vertex 79.5 14.5 5.8
      vertex 70.5 14.5 0
      vertex 79.5 14.5 0
    endloop
  endfacet
  facet normal 1 -0 0
    outer loop
      vertex 82.5 10.5 5.8
      vertex 82.5 14.5 0
      vertex 82.5 14.5 5.8
    endloop
  endfacet
  facet normal 1 0 0
    outer loop
      vertex 82.5 14.5 0
      vertex 82.5 10.5 5.8
      vertex 82.5 10.5 0
    endloop
  endfacet
  facet normal -1 0 0
    outer loop
      vertex 91.5 10.5 0
      vertex 91.5 14.5 5.8
      vertex 91.5 14.5 0
    endloop
  endfacet
  facet normal -1 -0 0
    outer loop
      vertex 91.5 14.5 5.8
      vertex 91.5 10.5 0
      vertex 91.5 10.5 5.8
    endloop
  endfacet
  facet normal 0 -1 0
    outer loop
      vertex 82.5 14.5 0
      vertex 91.5 14.5 5.8
      vertex 82.5 14.5 5.8
    endloop
  endfacet
  facet normal 0 -1 -0
    outer loop
      vertex 91.5 14.5 5.8
      vertex 82.5 14.5 0
      vertex 91.5 14.5 0
    endloop
  endfacet
  facet normal 0 1 -0
    outer loop
      vertex 91.5 10.5 0
      vertex 82.5 10.5 5.8
      vertex 91.5 10.5 5.8
    endloop
  endfacet
  facet normal 0 1 0
    outer loop
      vertex 82.5 10.5 5.8
      vertex 91.5 10.5 0
      vertex 82.5 10.5 0
    endloop
  endfacet
  facet normal 1 -0 0
    outer loop
      vertex 94.5 10.5 5.8
      vertex 94.5 14.5 0
      vertex 94.5 14.5 5.8
    endloop
  endfacet
  facet normal 1 0 0
    outer loop
      vertex 94.5 14.5 0
      vertex 94.5 10.5 5.8
      vertex 94.5 10.5 0
    endloop
  endfacet
  facet normal -1 0 0
    outer loop
      vertex 103.5 10.5 0
      vertex 103.5 14.5 5.8
      vertex 103.5 14.5 0
    endloop
  endfacet
  facet normal -1 -0 0
    outer loop
      vertex 103.5 14.5 5.8
      vertex 103.5 10.5 0
      vertex 103.5 10.5 5.8
    endloop
  endfacet
  facet normal 0 1 -0
    outer loop
      vertex 103.5 10.5 0
      vertex 94.5 10.5 5.8
      vertex 103.5 10.5 5.8
    endloop
  endfacet
  facet normal 0 1 0
    outer loop
      vertex 94.5 10.5 5.8
      vertex 103.5 10.5 0
      vertex 94.5 10.5 0
    endloop
  endfacet
  facet normal 0 -1 0
    outer loop
      vertex 94.5 14.5 0
      vertex 103.5 14.5 5.8
      vertex 94.5 14.5 5.8
    endloop
  endfacet
  facet normal 0 -1 -0
    outer loop
      vertex 103.5 14.5 5.8
      vertex 94.5 14.5 0
      vertex 103.5 14.5 0
    endloop
  endfacet
  facet normal 1 -0 0
    outer loop
      vertex 10.5 19.5 5.8
      vertex 10.5 23.5 0
      vertex 10.5 23.5 5.8
    endloop
  endfacet
  facet normal 1 0 0
    outer loop
      vertex 10.5 23.5 0
      vertex 10.5 19.5 5.8
      vertex 10.5 19.5 0
    endloop
  endfacet
  facet normal -1 0 0
    outer loop
      vertex 19.5 19.5 0
      vertex 19.5 23.5 5.8
      vertex 19.5 23.5 0
    endloop
  endfacet
  facet normal -1 -0 0
    outer loop
      vertex 19.5 23.5 5.8
      vertex 19.5 19.5 0
      vertex 19.5 19.5 5.8
    endloop
  endfacet
  facet normal 0 1 -0
    outer loop
      vertex 19.5 19.5 0
      vertex 10.5 19.5 5.8
      vertex 19.5 19.5 5.8
    endloop
  endfacet
  facet normal 0 1 0
    outer loop
      vertex 10.5 19.5 5.8
      vertex 19.5 19.5 0
      vertex 10.5 19.5 0
    endloop
  endfacet
  facet normal 0 -1 0
    outer loop
      vertex 10.5 23.5 0
      vertex 19.5 23.5 5.8
      vertex 10.5 23.5 5.8
    endloop
  endfacet
  facet normal 0 -1 -0
    outer loop
      vertex 19.5 23.5 5.8
      vertex 10.5 23.5 0
      vertex 19.5 23.5 0
    endloop
  endfacet
  facet normal 1 -0 0
    outer loop
      vertex 22.5 19.5 5.8
      vertex 22.5 23.5 0
      vertex 22.5 23.5 5.8
    endloop
  endfacet
  facet normal 1 0 0
    outer loop
      vertex 22.5 23.5 0
      vertex 22.5 19.5 5.8
      vertex 22.5 19.5 0
    endloop
  endfacet
  facet normal -1 0 0
    outer loop
      vertex 31.5 19.5 0
      vertex 31.5 23.5 5.8
      vertex 31.5 23.5 0
    endloop
  endfacet
  facet normal -1 -0 0
    outer loop
      vertex 31.5 23.5 5.8
      vertex 31.5 19.5 0
      vertex 31.5 19.5 5.8
    endloop
  endfacet
  facet normal 0 -1 0
    outer loop
      vertex 22.5 23.5 0
      vertex 31.5 23.5 5.8
      vertex 22.5 23.5 5.8
    endloop
  endfacet
  facet normal 0 -1 -0
    outer loop
      vertex 31.5 23.5 5.8
      vertex 22.5 23.5 0
      vertex 31.5 23.5 0
    endloop
  endfacet
  facet normal 0 1 -0
    outer loop
      vertex 31.5 19.5 0
      vertex 22.5 19.5 5.8
      vertex 31.5 19.5 5.8
    endloop
  endfacet
  facet normal 0 1 0
    outer loop
      vertex 22.5 19.5 5.8
      vertex 31.5 19.5 0
      vertex 22.5 19.5 0
    endloop
  endfacet
  facet normal 1 -0 0
    outer loop
      vertex 34.5 19.5 5.8
      vertex 34.5 23.5 0
      vertex 34.5 23.5 5.8
    endloop
  endfacet
  facet normal 1 0 0
    outer loop
      vertex 34.5 23.5 0
      vertex 34.5 19.5 5.8
      vertex 34.5 19.5 0
    endloop
  endfacet
  facet normal -1 0 0
    outer loop
      vertex 43.5 19.5 0
      vertex 43.5 23.5 5.8
      vertex 43.5 23.5 0
    endloop
  endfacet
  facet normal -1 -0 0
    outer loop
      vertex 43.5 23.5 5.8
      vertex 43.5 19.5 0
      vertex 43.5 19.5 5.8
    endloop
  endfacet
  facet normal 0 1 -0
    outer loop
      vertex 43.5 19.5 0
      vertex 34.5 19.5 5.8
      vertex 43.5 19.5 5.8
    endloop
  endfacet
  facet normal 0 1 0
    outer loop
      vertex 34.5 19.5 5.8
      vertex 43.5 19.5 0
      vertex 34.5 19.5 0
    endloop
  endfacet
  facet normal 0 -1 0
    outer loop
      vertex 34.5 23.5 0
      vertex 43.5 23.5 5.8
      vertex 34.5 23.5 5.8
    endloop
  endfacet
  facet normal 0 -1 -0
    outer loop
      vertex 43.5 23.5 5.8
      vertex 34.5 23.5 0
      vertex 43.5 23.5 0
    endloop
  endfacet
  facet normal 1 -0 0
    outer loop
      vertex 46.5 19.5 5.8
      vertex 46.5 23.5 0
      vertex 46.5 23.5 5.8
    endloop
  endfacet
  facet normal 1 0 0
    outer loop
      vertex 46.5 23.5 0
      vertex 46.5 19.5 5.8
      vertex 46.5 19.5 0
    endloop
  endfacet
  facet normal -1 0 0
    outer loop
      vertex 55.5 19.5 0
      vertex 55.5 23.5 5.8
      vertex 55.5 23.5 0
    endloop
  endfacet
  facet normal -1 -0 0
    outer loop
      vertex 55.5 23.5 5.8
      vertex 55.5 19.5 0
      vertex 55.5 19.5 5.8
    endloop
  endfacet
  facet normal 0 1 -0
    outer loop
      vertex 55.5 19.5 0
      vertex 46.5 19.5 5.8
      vertex 55.5 19.5 5.8
    endloop
  endfacet
  facet normal 0 1 0
    outer loop
      vertex 46.5 19.5 5.8
      vertex 55.5 19.5 0
      vertex 46.5 19.5 0
    endloop
  endfacet
  facet normal 0 -1 0
    outer loop
      vertex 46.5 23.5 0
      vertex 55.5 23.5 5.8
      vertex 46.5 23.5 5.8
    endloop
  endfacet
  facet normal 0 -1 -0
    outer loop
      vertex 55.5 23.5 5.8
      vertex 46.5 23.5 0
      vertex 55.5 23.5 0
    endloop
  endfacet
  facet normal 1 -0 0
    outer loop
      vertex 58.5 19.5 5.8
      vertex 58.5 23.5 0
      vertex 58.5 23.5 5.8
    endloop
  endfacet
  facet normal 1 0 0
    outer loop
      vertex 58.5 23.5 0
      vertex 58.5 19.5 5.8
      vertex 58.5 19.5 0
    endloop
  endfacet
  facet normal -1 0 0
    outer loop
      vertex 67.5 19.5 0
      vertex 67.5 23.5 5.8
      vertex 67.5 23.5 0
    endloop
  endfacet
  facet normal -1 -0 0
    outer loop
      vertex 67.5 23.5 5.8
      vertex 67.5 19.5 0
      vertex 67.5 19.5 5.8
    endloop
  endfacet
  facet normal 0 1 -0
    outer loop
      vertex 67.5 19.5 0
      vertex 58.5 19.5 5.8
      vertex 67.5 19.5 5.8
    endloop
  endfacet
  facet normal 0 1 0
    outer loop
      vertex 58.5 19.5 5.8
      vertex 67.5 19.5 0
      vertex 58.5 19.5 0
    endloop
  endfacet
  facet normal 0 -1 0
    outer loop
      vertex 58.5 23.5 0
      vertex 67.5 23.5 5.8
      vertex 58.5 23.5 5.8
    endloop
  endfacet
  facet normal 0 -1 -0
    outer loop
      vertex 67.5 23.5 5.8
      vertex 58.5 23.5 0
      vertex 67.5 23.5 0
    endloop
  endfacet
  facet normal 1 -0 0
    outer loop
      vertex 70.5 19.5 5.8
      vertex 70.5 23.5 0
      vertex 70.5 23.5 5.8
    endloop
  endfacet
  facet normal 1 0 0
    outer loop
      vertex 70.5 23.5 0
      vertex 70.5 19.5 5.8
      vertex 70.5 19.5 0
    endloop
  endfacet
  facet normal -1 0 0
    outer loop
      vertex 79.5 19.5 0
      vertex 79.5 23.5 5.8
      vertex 79.5 23.5 0
    endloop
  endfacet
  facet normal -1 -0 0
    outer loop
      vertex 79.5 23.5 5.8
      vertex 79.5 19.5 0
      vertex 79.5 19.5 5.8
    endloop
  endfacet
  facet normal 0 1 -0
    outer loop
      vertex 79.5 19.5 0
      vertex 70.5 19.5 5.8
      vertex 79.5 19.5 5.8
    endloop
  endfacet
  facet normal 0 1 0
    outer loop
      vertex 70.5 19.5 5.8
      vertex 79.5 19.5 0
      vertex 70.5 19.5 0
    endloop
  endfacet
  facet normal 0 -1 0
    outer loop
      vertex 70.5 23.5 0
      vertex 79.5 23.5 5.8
      vertex 70.5 23.5 5.8
    endloop
  endfacet
  facet normal 0 -1 -0
    outer loop
      vertex 79.5 23.5 5.8
      vertex 70.5 23.5 0
      vertex 79.5 23.5 0
    endloop
  endfacet
  facet normal 1 -0 0
    outer loop
      vertex 82.5 19.5 5.8
      vertex 82.5 23.5 0
      vertex 82.5 23.5 5.8
    endloop
  endfacet
  facet normal 1 0 0
    outer loop
      vertex 82.5 23.5 0
      vertex 82.5 19.5 5.8
      vertex 82.5 19.5 0
    endloop
  endfacet
  facet normal -1 0 0
    outer loop
      vertex 91.5 19.5 0
      vertex 91.5 23.5 5.8
      vertex 91.5 23.5 0
    endloop
  endfacet
  facet normal -1 -0 0
    outer loop
      vertex 91.5 23.5 5.8
      vertex 91.5 19.5 0
      vertex 91.5 19.5 5.8
    endloop
  endfacet
  facet normal 0 -1 0
    outer loop
      vertex 82.5 23.5 0
      vertex 91.5 23.5 5.8
      vertex 82.5 23.5 5.8
    endloop
  endfacet
  facet normal 0 -1 -0
    outer loop
      vertex 91.5 23.5 5.8
      vertex 82.5 23.5 0
      vertex 91.5 23.5 0
    endloop
  endfacet
  facet normal 0 1 -0
    outer loop
      vertex 91.5 19.5 0
      vertex 82.5 19.5 5.8
      vertex 91.5 19.5 5.8
    endloop
  endfacet
  facet normal 0 1 0
    outer loop
      vertex 82.5 19.5 5.8
      vertex 91.5 19.5 0
      vertex 82.5 19.5 0
    endloop
  endfacet
  facet normal 1 -0 0
    outer loop
      vertex 94.5 19.5 5.8
      vertex 94.5 23.5 0
      vertex 94.5 23.5 5.8
    endloop
  endfacet
  facet normal 1 0 0
    outer loop
      vertex 94.5 23.5 0
      vertex 94.5 19.5 5.8
      vertex 94.5 19.5 0
    endloop
  endfacet
  facet normal -1 0 0
    outer loop
      vertex 103.5 19.5 0
      vertex 103.5 23.5 5.8
      vertex 103.5 23.5 0
    endloop
  endfacet
  facet normal -1 -0 0
    outer loop
      vertex 103.5 23.5 5.8
      vertex 103.5 19.5 0
      vertex 103.5 19.5 5.8
    endloop
  endfacet
  facet normal 0 1 -0
    outer loop
      vertex 103.5 19.5 0
      vertex 94.5 19.5 5.8
      vertex 103.5 19.5 5.8
    endloop
  endfacet
  facet normal 0 1 0
    outer loop
      vertex 94.5 19.5 5.8
      vertex 103.5 19.5 0
      vertex 94.5 19.5 0
    endloop
  endfacet
  facet normal 0 -1 0
    outer loop
      vertex 94.5 23.5 0
      vertex 103.5 23.5 5.8
      vertex 94.5 23.5 5.8
    endloop
  endfacet
  facet normal 0 -1 -0
    outer loop
      vertex 103.5 23.5 5.8
      vertex 94.5 23.5 0
      vertex 103.5 23.5 0
    endloop
  endfacet
endsolid OpenSCAD_Model
